<svg xmlns="http://www.w3.org/2000/svg" viewBox="0 0 1920 3240">
  <defs>
    <style>
      .cls-2{fill:#fff}.cls-13,.cls-14,.cls-17,.cls-18,.cls-20,.cls-21,.cls-22,.cls-25,.cls-3,.cls-4,.cls-5{fill:none;stroke:#fff;stroke-miterlimit:10}.cls-3{stroke-width:3.66px}.cls-4{stroke-width:1.83px}.cls-5{stroke-width:2.54px}.cls-13{stroke-width:3.72px}.cls-14{stroke-width:4.32px}.cls-17{stroke-width:4.24px}.cls-18{stroke-width:3.12px}.cls-20{stroke-width:5.29px}.cls-21{stroke-width:3.19px}.cls-22{stroke-width:3.14px}.cls-25{stroke-width:3.77px}
    </style>
  </defs>
  <path fill="#54002a" d="M0 0h1920v3240H0z" id="Layer_1" data-name="Layer 1"/>
  <g id="Layer_2" data-name="Layer 2">
    <path class="cls-2" d="M1737.41 79.91v25.39h-2.71a2.42 2.42 0 01-1-.2 2.56 2.56 0 01-.82-.69l-12.66-16.1c0 .41.06.81.08 1.2s0 .77 0 1.11v14.68h-4.64V79.91H1718.99a1.2 1.2 0 01.43.13 1.42 1.42 0 01.37.25 2.7 2.7 0 01.38.42l12.75 16.17c-.05-.44-.09-.87-.11-1.29s0-.8 0-1.18v-14.5zM1765.52 100.87a1.7 1.7 0 011.23.44 1.54 1.54 0 01.45 1.15v2.84h-17.61v-1.58a2.85 2.85 0 01.2-1 2.52 2.52 0 01.64-1l7.53-7.54c.64-.64 1.2-1.25 1.69-1.84a12.71 12.71 0 001.23-1.74 7.57 7.57 0 00.74-1.72 6.93 6.93 0 00.24-1.84 3.49 3.49 0 00-.88-2.58 3.29 3.29 0 00-2.46-.88 3.8 3.8 0 00-1.29.2 3.75 3.75 0 00-1 .55 3.89 3.89 0 00-.8.82 3.61 3.61 0 00-.49 1 2 2 0 01-.84 1.17 2.41 2.41 0 01-1.52.13l-2.55-.46a9.42 9.42 0 011-3.25 7.71 7.71 0 011.92-2.33 7.94 7.94 0 012.64-1.39 10.74 10.74 0 013.21-.46 9.77 9.77 0 013.28.53 7.56 7.56 0 012.53 1.49 6.4 6.4 0 011.62 2.3 7.39 7.39 0 01.58 3 8 8 0 01-.4 2.59 10.3 10.3 0 01-1.09 2.27 15.56 15.56 0 01-1.61 2.09c-.6.68-1.24 1.36-1.92 2l-5.39 5.51a16.15 16.15 0 011.77-.41 9.7 9.7 0 011.64-.15zM1783.35 92.07a6.28 6.28 0 013.36 2.32 6.46 6.46 0 011 3.72 7.2 7.2 0 01-.65 3.08 6.75 6.75 0 01-1.82 2.35 8.45 8.45 0 01-2.82 1.51 12.76 12.76 0 01-7.28 0 8.5 8.5 0 01-2.81-1.51 6.63 6.63 0 01-1.82-2.35 7.2 7.2 0 01-.65-3.08 6.46 6.46 0 011-3.72 6.28 6.28 0 013.36-2.32 5.8 5.8 0 01-2.69-2.21 6.22 6.22 0 01-.88-3.37 6.33 6.33 0 01.59-2.72 6.45 6.45 0 011.76-2.17 7.8 7.8 0 012.56-1.45 10.45 10.45 0 016.51 0 7.8 7.8 0 012.56 1.45 6.3 6.3 0 011.67 2.17 6.7 6.7 0 01-.28 6.09 5.8 5.8 0 01-2.67 2.21zm-4.52 9.82a4.68 4.68 0 001.75-.3 3.56 3.56 0 001.23-.81 3.33 3.33 0 00.73-1.23 4.47 4.47 0 00.25-1.53 4.16 4.16 0 00-1-2.93 4.8 4.8 0 00-6 0 4.11 4.11 0 00-1 2.93 4.72 4.72 0 00.24 1.53 3.49 3.49 0 00.74 1.23 3.56 3.56 0 001.23.81 4.66 4.66 0 001.83.3zm0-18.69a3.77 3.77 0 00-1.53.28 3 3 0 00-1 .74 3 3 0 00-.6 1.08 4.16 4.16 0 00-.19 1.27 6.46 6.46 0 00.15 1.4 3.37 3.37 0 00.55 1.2 2.76 2.76 0 001 .83 4.39 4.39 0 003.29 0 2.84 2.84 0 001-.83 3.19 3.19 0 00.54-1.2 5.89 5.89 0 00.16-1.4 4.16 4.16 0 00-.19-1.27 3 3 0 00-.6-1.08 3 3 0 00-1.05-.74 3.78 3.78 0 00-1.53-.28zM1721 126v7h9.13v4.13H1721v10.17h-5.29v-25.39h16.17V126zM1739.39 121.21v26.09h-4.83v-26.09zM1751.55 129a10 10 0 013.7.65 8.19 8.19 0 012.85 1.84 8.36 8.36 0 011.84 2.91 12.05 12.05 0 010 7.75 8 8 0 01-4.69 4.79 10.15 10.15 0 01-3.7.64 10.3 10.3 0 01-3.72-.64 8 8 0 01-4.7-4.79 11.71 11.71 0 010-7.75 7.92 7.92 0 014.7-4.75 10.09 10.09 0 013.72-.65zm0 15a3.5 3.5 0 003.07-1.43 9.55 9.55 0 000-8.47 4.07 4.07 0 00-6.18 0 9.47 9.47 0 000 8.47 3.53 3.53 0 003.11 1.37zM1771.76 129a10 10 0 013.7.65 8 8 0 012.85 1.84 8.36 8.36 0 011.84 2.91 12.05 12.05 0 010 7.75 8.45 8.45 0 01-1.84 2.93 8.19 8.19 0 01-2.85 1.86 11 11 0 01-7.41 0 8.14 8.14 0 01-2.86-1.86 8.32 8.32 0 01-1.85-2.93 11.71 11.71 0 010-7.75 8.24 8.24 0 011.85-2.91 8 8 0 012.86-1.84 10 10 0 013.71-.65zm0 15a3.5 3.5 0 003.07-1.43 9.55 9.55 0 000-8.47 4.07 4.07 0 00-6.18 0 9.47 9.47 0 000 8.47 3.53 3.53 0 003.11 1.37zM1788.37 132.23a8.15 8.15 0 012-2.43 4.06 4.06 0 012.62-.89 3.27 3.27 0 012 .57l-.32 3.57a.75.75 0 01-.27.49.9.9 0 01-.5.13 6.4 6.4 0 01-.8-.08 7 7 0 00-1-.08 3.32 3.32 0 00-1.18.19 3 3 0 00-.92.54 4.14 4.14 0 00-.73.86 9.61 9.61 0 00-.6 1.16v11h-4.83v-18h2.85a1.49 1.49 0 011 .26 1.68 1.68 0 01.4.91zM1804.54 134.72h9.24v3.95h-9.24zM1831.42 131a14.77 14.77 0 011.52-.23 13.53 13.53 0 011.4-.07 9.64 9.64 0 013.53.6 7.46 7.46 0 012.57 1.66 6.77 6.77 0 011.57 2.46 8.76 8.76 0 01.52 3 9.42 9.42 0 01-.71 3.7 8.45 8.45 0 01-2 2.87 9.15 9.15 0 01-3 1.87 10.83 10.83 0 01-3.84.66 10.29 10.29 0 01-2.31-.25 10.73 10.73 0 01-2.05-.69 10.57 10.57 0 01-1.78-1 11.11 11.11 0 01-1.47-1.17l1.49-2a1.45 1.45 0 011.22-.65 1.8 1.8 0 01.93.28l1 .63a9.5 9.5 0 001.35.62 5.67 5.67 0 001.87.28 4.82 4.82 0 002-.38 3.8 3.8 0 001.39-1 4.31 4.31 0 00.82-1.56 6.67 6.67 0 00.27-1.93 4 4 0 00-1.12-3.06 4.64 4.64 0 00-3.29-1.07 10.21 10.21 0 00-3.55.66l-3-.84 2.13-12.49h12.74v2a2.69 2.69 0 01-.15.92 1.69 1.69 0 01-.48.71 2.26 2.26 0 01-.88.48 4.48 4.48 0 01-1.3.16h-6.57z" transform="translate(0 .5)"/>
    <path class="cls-3" d="M369.77 157.5h170.16v92.4h139.06v171.08H524.38v262.56h730.97v-117.1l170.17-3.66V453l149.12-2.75V847.3H342.33V157.5h27.44z"/>
    <path class="cls-4" d="M342.33 157.5h66.78v57.64h-66.78z"/>
    <path class="cls-5" d="M409.11 157.5h129.45v57.18H409.11z"/>
    <path stroke-width="2.61" fill="none" stroke="#fff" stroke-miterlimit="10" d="M540.39 250.82h137.23V308H540.39z"/>
    <path stroke-width="2.01" fill="none" stroke="#fff" stroke-miterlimit="10" d="M618.16 342.3h59.47v78.22h-59.47z"/>
    <path class="cls-5" d="M342.78 242.12h59.47v39.34h-59.47z"/>
    <path stroke-width="2.77" fill="none" stroke="#fff" stroke-miterlimit="10" d="M342.78 308.91h50.77v54.89h-50.77z"/>
    <path stroke-width="2.8" fill="none" stroke="#fff" stroke-miterlimit="10" d="M342.78 363.8h50.77v56.26h-50.77z"/>
    <path stroke-width="3.57" fill="none" stroke="#fff" stroke-miterlimit="10" d="M343.7 420.98h59.47v77.76H343.7z"/>
    <path stroke-width="3.7" fill="none" stroke="#fff" stroke-miterlimit="10" d="M343.7 498.74h59.47v83.71H343.7z"/>
    <path stroke-width="4.04" fill="none" stroke="#fff" stroke-miterlimit="10" d="M343.7 582.45h59.47v99.72H343.7z"/>
    <path class="cls-13" d="M718.33 847.3h114.36v88.74H718.33zM832.69 847.3h114.36v88.74H832.69z"/>
    <path class="cls-13" d="M947.05 847.3h114.36v88.74H947.05z"/>
    <path class="cls-14" d="M1339.52 847.3h154.61v88.74h-154.61z"/>
    <path stroke-width="3.79" fill="none" stroke="#fff" stroke-miterlimit="10" d="M1255.35 564.61h118.93v88.74h-118.93z"/>
    <path stroke-width="4.15" fill="none" stroke="#fff" stroke-miterlimit="10" d="M1492.3 661.13h81.88v154.61h-81.88z"/>
    <path class="cls-17" d="M1426.43 451.63h147.75v89.2h-147.75z"/>
    <path class="cls-18" d="M1494.59 847.76h80.51v88.74h-80.51z"/>
    <path class="cls-2" d="M450.22 175.4v19.84H447v-12.82a16.54 16.54 0 01.08-1.66l-6 11.27a1.38 1.38 0 01-1.3.81h-.52a1.4 1.4 0 01-1.31-.81l-6.06-11.31c0 .3.05.6.07.89s0 .57 0 .81v12.82h-3.26V175.4h3.21a1.14 1.14 0 01.33.07.87.87 0 01.26.18 1.57 1.57 0 01.22.33l5.95 11c.15.29.29.59.43.9s.26.63.39 1c.13-.34.26-.66.4-1a9.54 9.54 0 01.44-.91l5.85-11a1.57 1.57 0 01.24-.33.8.8 0 01.27-.18 1 1 0 01.32-.07h3.21zM461.09 175.4a11.37 11.37 0 013.44.46 6.72 6.72 0 012.4 1.31 5.21 5.21 0 011.41 2 6.84 6.84 0 01.46 2.55 7.1 7.1 0 01-.48 2.65 5.5 5.5 0 01-1.44 2.06 6.61 6.61 0 01-2.41 1.35 10.72 10.72 0 01-3.38.48h-2.76v7h-3.69V175.4zm0 10a5.6 5.6 0 001.77-.25 3.28 3.28 0 001.25-.73 2.81 2.81 0 00.75-1.15 4.29 4.29 0 00.25-1.52 3.89 3.89 0 00-.25-1.44 2.75 2.75 0 00-.74-1.09 3.23 3.23 0 00-1.25-.7 5.9 5.9 0 00-1.78-.24h-2.76v7.12zM475.32 183.71h.86a2.2 2.2 0 00.87-.14 1.53 1.53 0 00.59-.46l5.47-6.93a2 2 0 01.72-.61 2.23 2.23 0 011-.17H488l-6.68 8.25a3.82 3.82 0 01-1.22 1.07 2.7 2.7 0 01.81.46 3.3 3.3 0 01.7.77l6.88 9.29h-3.25a2.08 2.08 0 01-1-.18 1.67 1.67 0 01-.54-.55l-5.61-7.32a1.51 1.51 0 00-.61-.53 2.57 2.57 0 00-1-.15h-1.16v8.73h-3.69V175.4h3.69zM502.43 192.7v2.54h-11v-2.54h4v-11.57-1.41l-2.86 2.39a1.09 1.09 0 01-.48.24 1.43 1.43 0 01-.46 0 1.11 1.11 0 01-.37-.15.7.7 0 01-.25-.23l-1.01-1.45 6.05-5.15h2.79v17.33zM519.38 185.32a16.32 16.32 0 01-.55 4.51 9.32 9.32 0 01-1.54 3.16 6.34 6.34 0 01-2.32 1.86 6.84 6.84 0 01-2.89.61 6.72 6.72 0 01-2.87-.61 6.2 6.2 0 01-2.3-1.86 9.31 9.31 0 01-1.53-3.16 19.15 19.15 0 010-9 9.26 9.26 0 011.53-3.15 6.2 6.2 0 012.3-1.86 6.72 6.72 0 012.87-.61 6.84 6.84 0 012.89.61 6.34 6.34 0 012.32 1.86 9.27 9.27 0 011.54 3.15 16.35 16.35 0 01.55 4.49zm-3.5 0a16.83 16.83 0 00-.31-3.57 7.25 7.25 0 00-.85-2.25 3 3 0 00-1.21-1.17 3.14 3.14 0 00-2.84 0 3 3 0 00-1.2 1.17 7.54 7.54 0 00-.83 2.25 20.71 20.71 0 000 7.14 7.54 7.54 0 00.83 2.25 3 3 0 001.2 1.17 3.14 3.14 0 002.84 0 3 3 0 001.21-1.17 7.25 7.25 0 00.85-2.25 16.83 16.83 0 00.31-3.57zM584.7 268.71v19.85h-3.25v-12.82c0-.51 0-1.07.08-1.66l-6 11.27a1.4 1.4 0 01-1.31.8h-.52a1.39 1.39 0 01-1.3-.8L566.34 274c0 .3 0 .6.07.89s0 .56 0 .81v12.82h-3.25v-19.81h3.27a1.07 1.07 0 01.32.07.62.62 0 01.26.17 2.35 2.35 0 01.23.33l5.94 11c.15.3.3.6.43.91l.39 1c.13-.34.26-.67.4-1s.28-.62.44-.91l5.86-11a1.74 1.74 0 01.23-.33.65.65 0 01.27-.17 1.07 1.07 0 01.32-.07h.43zM595.57 268.71a11.37 11.37 0 013.45.47 6.71 6.71 0 012.4 1.3 5.12 5.12 0 011.4 2 6.77 6.77 0 01.46 2.55 7 7 0 01-.48 2.64 5.53 5.53 0 01-1.44 2.07 6.75 6.75 0 01-2.41 1.34 10.72 10.72 0 01-3.38.48h-2.76v7h-3.69v-19.85zm0 10a5.81 5.81 0 001.77-.25 3.54 3.54 0 001.26-.73 3.1 3.1 0 00.75-1.15 4.57 4.57 0 00.24-1.52 4.1 4.1 0 00-.24-1.44 2.91 2.91 0 00-.75-1.1 3.31 3.31 0 00-1.24-.69 6 6 0 00-1.79-.24h-2.76v7.12zM609.8 277h.87a2.38 2.38 0 00.86-.14 1.46 1.46 0 00.59-.46l5.48-6.93a2 2 0 01.72-.62 2.37 2.37 0 01.95-.17h3.18l-6.68 8.32a3.71 3.71 0 01-1.22 1.07 2.88 2.88 0 01.82.46 3.83 3.83 0 01.69.78l6.89 9.29h-3.25a2.11 2.11 0 01-1-.19 1.55 1.55 0 01-.54-.54l-5.61-7.33a1.46 1.46 0 00-.6-.52 2.57 2.57 0 00-1-.15h-1.15v8.73h-3.69v-19.89h3.69zM638 278.63a16.25 16.25 0 01-.56 4.51 9.19 9.19 0 01-1.54 3.17 6.1 6.1 0 01-2.31 1.85 6.88 6.88 0 01-2.89.62 6.74 6.74 0 01-2.88-.62 6.15 6.15 0 01-2.3-1.85 9.36 9.36 0 01-1.52-3.17 18.77 18.77 0 010-9 9.39 9.39 0 011.52-3.16 6.28 6.28 0 012.3-1.86 6.88 6.88 0 012.88-.61 7 7 0 012.89.61 6.23 6.23 0 012.31 1.86 9.23 9.23 0 011.54 3.16 16.25 16.25 0 01.56 4.49zm-3.5 0a16.72 16.72 0 00-.32-3.56 7.07 7.07 0 00-.84-2.25 3.11 3.11 0 00-1.22-1.18 3.21 3.21 0 00-1.42-.33 3.17 3.17 0 00-1.41.33 3.13 3.13 0 00-1.2 1.18 6.85 6.85 0 00-.83 2.25 20.65 20.65 0 000 7.13 6.94 6.94 0 00.83 2.25 3.13 3.13 0 001.2 1.18 3.17 3.17 0 001.41.33 3.21 3.21 0 001.42-.33 3.11 3.11 0 001.22-1.18 7.17 7.17 0 00.84-2.25 16.75 16.75 0 00.27-3.57zM647.66 280.86c.16-.19.3-.38.44-.56l.4-.55a5.54 5.54 0 01-1.51.66 6.57 6.57 0 01-1.73.23 5.9 5.9 0 01-2-.36 5.13 5.13 0 01-1.75-1.08 5.36 5.36 0 01-1.24-1.78 6 6 0 01-.48-2.49 6.34 6.34 0 01.5-2.5 6.24 6.24 0 011.38-2 6.54 6.54 0 012.14-1.39 7.25 7.25 0 012.76-.51 7.39 7.39 0 012.74.48 5.84 5.84 0 013.39 3.42 7.56 7.56 0 01.46 2.65 8.86 8.86 0 01-.16 1.74 8.52 8.52 0 01-.45 1.59 10.55 10.55 0 01-.7 1.49 16.51 16.51 0 01-.92 1.44l-4.54 6.47a1.75 1.75 0 01-.7.56 2.38 2.38 0 01-1 .23h-3.19zm-4.5-6.19a3.46 3.46 0 00.86 2.53 3.25 3.25 0 002.43.87 3.78 3.78 0 001.47-.26 3.17 3.17 0 001.09-.71 3 3 0 00.66-1.07 4.15 4.15 0 000-2.78 2.89 2.89 0 00-.7-1.08 3 3 0 00-1.07-.67 3.83 3.83 0 00-1.37-.23 3.66 3.66 0 00-1.39.25 3 3 0 00-1 .71 2.9 2.9 0 00-.67 1.07 3.79 3.79 0 00-.31 1.37zM717.36 369.35v19.84h-3.25v-12.82a16.54 16.54 0 01.08-1.66l-6 11.27a1.38 1.38 0 01-1.3.81h-.52a1.4 1.4 0 01-1.31-.81L699 374.67c0 .3 0 .6.06.89s0 .57 0 .81v12.82h-3.25v-19.84h3.21a1 1 0 01.32.07.68.68 0 01.26.18 1.27 1.27 0 01.23.33l5.94 11c.16.29.3.59.44.9l.39 1c.12-.34.26-.66.39-1s.29-.62.44-.91l5.86-11a1.28 1.28 0 01.24-.33.87.87 0 01.26-.18 1.14 1.14 0 01.33-.07h3.21zM728.23 369.35a11.37 11.37 0 013.44.46 6.57 6.57 0 012.4 1.31 5.21 5.21 0 011.41 2 7.4 7.4 0 010 5.19 5.45 5.45 0 01-1.44 2.07 6.54 6.54 0 01-2.41 1.34 10.47 10.47 0 01-3.38.49h-2.76v7h-3.69v-19.86zm0 10a5.6 5.6 0 001.77-.25 3.28 3.28 0 001.25-.73 2.91 2.91 0 00.75-1.15 4.53 4.53 0 00.25-1.52 4.1 4.1 0 00-.25-1.44 3 3 0 00-.74-1.1 3.35 3.35 0 00-1.25-.69 5.9 5.9 0 00-1.78-.24h-2.76v7.12zM742.46 377.66h.86a2.2 2.2 0 00.87-.14 1.61 1.61 0 00.59-.46l5.47-6.93a2 2 0 01.72-.61 2.21 2.21 0 01.95-.17h3.19l-6.68 8.24a3.72 3.72 0 01-1.23 1.07 2.85 2.85 0 01.82.46 3.83 3.83 0 01.69.78l6.89 9.29h-3.25a1.93 1.93 0 01-1-.19 1.4 1.4 0 01-.54-.54l-5.62-7.33a1.47 1.47 0 00-.6-.52 2.57 2.57 0 00-1-.15h-1.16v8.73h-3.7v-19.84h3.7zM770.6 379.27a16.32 16.32 0 01-.55 4.51 9.32 9.32 0 01-1.54 3.16 6.34 6.34 0 01-2.32 1.86 6.84 6.84 0 01-2.89.61 6.72 6.72 0 01-2.87-.61 6.2 6.2 0 01-2.3-1.86 9.31 9.31 0 01-1.53-3.16 18.81 18.81 0 010-9 9.26 9.26 0 011.53-3.15 6.2 6.2 0 012.3-1.86 6.72 6.72 0 012.87-.61 6.84 6.84 0 012.89.61 6.34 6.34 0 012.32 1.86 9.27 9.27 0 011.54 3.15 16.35 16.35 0 01.55 4.49zm-3.5 0a16.83 16.83 0 00-.31-3.57 7.25 7.25 0 00-.85-2.25 3 3 0 00-1.21-1.17 3.16 3.16 0 00-1.43-.34 3.11 3.11 0 00-1.41.34 3 3 0 00-1.2 1.17 7.54 7.54 0 00-.83 2.25 20.71 20.71 0 000 7.14 7.54 7.54 0 00.83 2.25 3 3 0 001.2 1.17 3.25 3.25 0 001.41.34 3.3 3.3 0 001.43-.34 3 3 0 001.21-1.17 7.25 7.25 0 00.85-2.25 16.9 16.9 0 00.31-3.57zM782.59 378.84a5.14 5.14 0 012.68 1.81 5 5 0 01.87 3 5.51 5.51 0 01-.51 2.39 5.2 5.2 0 01-1.4 1.82 6.69 6.69 0 01-2.18 1.17 9.8 9.8 0 01-5.61 0 6.69 6.69 0 01-2.18-1.17 5.2 5.2 0 01-1.4-1.82 5.5 5.5 0 01-.5-2.39 5 5 0 01.86-3 5.14 5.14 0 012.68-1.81 4.58 4.58 0 01-2.16-1.71 5.2 5.2 0 01-.26-4.78 5 5 0 011.28-1.69 6 6 0 012-1.13 8.11 8.11 0 015 0 6 6 0 012 1.13 5.18 5.18 0 011.29 1.69 5 5 0 01.46 2.1 4.83 4.83 0 01-.72 2.68 4.56 4.56 0 01-2.2 1.71zm-3.34 7.92a4.1 4.1 0 001.46-.24 3 3 0 001.07-.66 2.87 2.87 0 00.65-1 3.55 3.55 0 00.22-1.28 3.19 3.19 0 00-.91-2.47 4.17 4.17 0 00-5 0 3.23 3.23 0 00-.91 2.47 3.78 3.78 0 00.22 1.28 3 3 0 00.65 1 3.12 3.12 0 001.07.66 4.12 4.12 0 001.48.24zm0-15.08a3.45 3.45 0 00-1.31.23 2.74 2.74 0 00-.91.63 2.58 2.58 0 00-.54.9 3.38 3.38 0 00-.17 1.07 4.35 4.35 0 00.15 1.14 2.68 2.68 0 00.48 1 2.44 2.44 0 00.91.69 3.23 3.23 0 001.39.26 3.15 3.15 0 001.38-.26 2.37 2.37 0 00.91-.69 2.7 2.7 0 00.49-1 4.81 4.81 0 00.14-1.14 3.12 3.12 0 00-.18-1.07 2.71 2.71 0 00-.53-.9 2.64 2.64 0 00-.91-.63 3.43 3.43 0 00-1.3-.23zM1292.8 598.06v19.84h-3.25v-12.81c0-.51 0-1.07.08-1.66l-6 11.26a1.4 1.4 0 01-1.31.81h-.52a1.37 1.37 0 01-1.3-.81l-6.07-11.3c0 .3 0 .59.07.89s0 .56 0 .81v12.81h-3.26v-19.84h3.22a1.13 1.13 0 01.32.06.87.87 0 01.26.18 1.57 1.57 0 01.23.33l5.94 11c.15.29.3.6.43.91s.26.63.39 1c.13-.34.26-.67.4-1s.28-.62.44-.92l5.86-11a1.27 1.27 0 01.23-.33.8.8 0 01.27-.18 1 1 0 01.32-.06h.43zM1303.67 598.06a11.42 11.42 0 013.45.47 6.73 6.73 0 012.4 1.3 5.16 5.16 0 011.4 2 6.86 6.86 0 01.46 2.56 7 7 0 01-.48 2.64 5.42 5.42 0 01-1.44 2.06 6.61 6.61 0 01-2.41 1.35 10.72 10.72 0 01-3.38.48h-2.76v7h-3.69v-19.86zm0 10a5.5 5.5 0 001.77-.26 3.53 3.53 0 001.26-.72 2.93 2.93 0 00.74-1.16 4.23 4.23 0 00.25-1.51 3.89 3.89 0 00-.25-1.44 2.78 2.78 0 00-.74-1.1 3.27 3.27 0 00-1.25-.69 5.85 5.85 0 00-1.78-.24h-2.76V608zM1317.9 606.38h.87a2.17 2.17 0 00.86-.15 1.38 1.38 0 00.59-.46l5.48-6.93a1.93 1.93 0 01.72-.61 2.34 2.34 0 01.95-.17h3.18l-6.68 8.25a3.71 3.71 0 01-1.22 1.07 2.88 2.88 0 01.82.46 3.76 3.76 0 01.69.77l6.89 9.29h-3.26a2.11 2.11 0 01-1-.18 1.55 1.55 0 01-.54-.54l-5.61-7.33a1.46 1.46 0 00-.6-.52 2.57 2.57 0 00-1-.15h-1.17v8.72h-3.69v-19.84h3.69zM1346.05 608a16.3 16.3 0 01-.56 4.51 9.05 9.05 0 01-1.54 3.16 6 6 0 01-2.32 1.86 7.1 7.1 0 01-5.76 0 6.08 6.08 0 01-2.3-1.86 9 9 0 01-1.52-3.16 18.77 18.77 0 010-9 9.12 9.12 0 011.52-3.16 6.28 6.28 0 012.3-1.86 7.1 7.1 0 015.76 0 6.18 6.18 0 012.32 1.86 9.14 9.14 0 011.54 3.16 16.2 16.2 0 01.56 4.49zm-3.5 0a16.88 16.88 0 00-.32-3.57 7.26 7.26 0 00-.84-2.25 3 3 0 00-2.64-1.5 2.91 2.91 0 00-2.61 1.5 7 7 0 00-.83 2.25 20.71 20.71 0 000 7.14 7 7 0 00.83 2.25 3 3 0 002.61 1.51 3.12 3.12 0 001.42-.34 3.07 3.07 0 001.22-1.17 7.26 7.26 0 00.84-2.25 16.75 16.75 0 00.32-3.57zM1348.21 603.59a7.5 7.5 0 01.8-2.5 5.84 5.84 0 013.51-2.88 7.83 7.83 0 012.46-.37 7.46 7.46 0 012.48.39 5.53 5.53 0 011.88 1.09 4.76 4.76 0 011.2 1.62 4.87 4.87 0 01.42 2 6 6 0 01-.21 1.67 3.94 3.94 0 01-.61 1.25 3.75 3.75 0 01-1 .91 6.27 6.27 0 01-1.33.62 5.1 5.1 0 012.66 1.71 4.63 4.63 0 01.88 2.9 5.9 5.9 0 01-.55 2.62 5.61 5.61 0 01-1.48 1.91 6.46 6.46 0 01-2.16 1.18 8.57 8.57 0 01-2.6.39 8.84 8.84 0 01-2.61-.34 5.72 5.72 0 01-1.93-1 6.29 6.29 0 01-1.41-1.65 11.12 11.12 0 01-1-2.25l1.49-.62a1.84 1.84 0 011.11-.13 1.08 1.08 0 01.75.56 9.88 9.88 0 00.54.94 4 4 0 00.7.83 3.27 3.27 0 001 .59 3.52 3.52 0 001.33.23 3.73 3.73 0 001.47-.26 3.19 3.19 0 001.07-.74 2.92 2.92 0 00.65-1 3.17 3.17 0 00.21-1.12 5.22 5.22 0 00-.15-1.3 1.88 1.88 0 00-.63-1 3.41 3.41 0 00-1.38-.65 10.26 10.26 0 00-2.41-.23v-2.42a8.46 8.46 0 002.07-.23 3.55 3.55 0 001.31-.61 2.07 2.07 0 00.68-.94 3.61 3.61 0 00.2-1.21 2.79 2.79 0 00-.79-2.13 2.94 2.94 0 00-2.08-.72 3.23 3.23 0 00-1.11.17 3 3 0 00-.92.48 2.91 2.91 0 00-.68.72 3.07 3.07 0 00-.41.9 1.49 1.49 0 01-.61.84 1.68 1.68 0 01-1.06.1zM1476.69 484.62v19.84h-3.25v-12.81a16.6 16.6 0 01.08-1.67l-6 11.27a1.38 1.38 0 01-1.3.81h-.52a1.4 1.4 0 01-1.31-.81l-6.06-11.31c0 .31.05.6.07.9s0 .56 0 .81v12.81h-3.25v-19.84h3.21a1.38 1.38 0 01.32.07.8.8 0 01.27.18 1.57 1.57 0 01.22.33l5.94 11c.16.29.3.59.44.9l.39 1c.12-.33.26-.66.4-1s.28-.62.43-.91l5.86-11a1.28 1.28 0 01.24-.33.87.87 0 01.26-.18 1.6 1.6 0 01.33-.07h3.21zM1487.56 484.62a11 11 0 013.44.47 6.56 6.56 0 012.4 1.3 5.29 5.29 0 011.41 2 6.86 6.86 0 01.46 2.56 7 7 0 01-.48 2.64 5.42 5.42 0 01-1.44 2.06 6.7 6.7 0 01-2.41 1.35 10.77 10.77 0 01-3.38.48h-2.76v7h-3.69v-19.86zm0 10a5.59 5.59 0 001.77-.26 3.28 3.28 0 001.25-.73 2.81 2.81 0 00.75-1.15 4.51 4.51 0 00.25-1.51 4.12 4.12 0 00-.25-1.45 2.75 2.75 0 00-.74-1.09 3.23 3.23 0 00-1.25-.7 5.9 5.9 0 00-1.78-.24h-2.76v7.13zM1501.79 492.93h.86a2.2 2.2 0 00.87-.14 1.51 1.51 0 00.59-.46l5.47-6.93a2 2 0 01.72-.61 2.37 2.37 0 011-.17h3.19l-6.68 8.25a3.74 3.74 0 01-1.23 1.07 2.63 2.63 0 01.82.46 3.51 3.51 0 01.69.77l6.89 9.29h-3.25a2.06 2.06 0 01-1-.18 1.5 1.5 0 01-.54-.55l-5.61-7.32a1.48 1.48 0 00-.61-.52 2.37 2.37 0 00-1-.16h-1.16v8.73h-3.7v-19.84h3.7zM1529.93 494.54a16.32 16.32 0 01-.55 4.51 9.32 9.32 0 01-1.54 3.16 6.34 6.34 0 01-2.32 1.86 6.84 6.84 0 01-2.89.61 6.72 6.72 0 01-2.87-.61 6.2 6.2 0 01-2.3-1.86 9.31 9.31 0 01-1.53-3.16 19.1 19.1 0 010-9 9.22 9.22 0 011.53-3.16 6.2 6.2 0 012.3-1.86 6.72 6.72 0 012.87-.61 6.84 6.84 0 012.89.61 6.34 6.34 0 012.32 1.86 9.23 9.23 0 011.54 3.16 16.22 16.22 0 01.55 4.49zm-3.5 0a16.9 16.9 0 00-.31-3.57 7.25 7.25 0 00-.85-2.25 3 3 0 00-1.21-1.17 3.16 3.16 0 00-1.43-.34 3.11 3.11 0 00-1.41.34 3 3 0 00-1.2 1.17 7.54 7.54 0 00-.83 2.25 20.71 20.71 0 000 7.14 7.54 7.54 0 00.83 2.25 3 3 0 001.2 1.17 3.11 3.11 0 001.41.34 3.16 3.16 0 001.43-.34 3 3 0 001.21-1.17 7.25 7.25 0 00.85-2.25 16.83 16.83 0 00.31-3.57zM1545.84 497v2a.67.67 0 01-.18.47.66.66 0 01-.51.2h-1.81v4.84h-2.95v-4.84H1532a1 1 0 01-.61-.21 1 1 0 01-.33-.53l-.35-1.72 9.4-12.55h3.21V497zm-5.45 0v-6.49a19.06 19.06 0 01.12-2l-6.16 8.52zM1613 731.63v19.84h-3.25v-12.81c0-.52 0-1.07.08-1.66l-6 11.26a1.37 1.37 0 01-1.3.81h-.53a1.37 1.37 0 01-1.3-.81l-6.06-11.26c0 .31 0 .6.07.9s0 .56 0 .81v12.81h-3.26v-19.89h3.22a1.65 1.65 0 01.32.07.87.87 0 01.26.18 1.57 1.57 0 01.23.33l5.94 11c.15.29.3.59.43.91s.26.63.39 1c.13-.34.26-.67.4-1s.28-.63.44-.92l5.86-11a1.27 1.27 0 01.23-.33.8.8 0 01.27-.18 1.38 1.38 0 01.32-.07h3.24zM1623.87 731.63a11.31 11.31 0 013.44.47 6.69 6.69 0 012.41 1.3 5.16 5.16 0 011.4 2 6.86 6.86 0 01.46 2.56 7 7 0 01-.48 2.64 5.42 5.42 0 01-1.44 2.06 6.61 6.61 0 01-2.41 1.35 10.72 10.72 0 01-3.38.48h-2.76v7h-3.69v-19.86zm0 10a5.5 5.5 0 001.77-.26 3.53 3.53 0 001.26-.72 2.93 2.93 0 00.74-1.16 4.27 4.27 0 00.25-1.51 4 4 0 00-.25-1.45 2.82 2.82 0 00-.74-1.09 3.43 3.43 0 00-1.25-.7 5.87 5.87 0 00-1.78-.23h-2.76v7.12zM1638.1 740h.86a2.19 2.19 0 00.87-.15 1.44 1.44 0 00.59-.46l5.48-6.93a1.93 1.93 0 01.72-.61 2.34 2.34 0 011-.17h3.18l-6.68 8.25a3.71 3.71 0 01-1.22 1.07 2.88 2.88 0 01.82.46 3.51 3.51 0 01.69.77l6.89 9.29h-3.3a2.11 2.11 0 01-1-.18 1.64 1.64 0 01-.54-.54l-5.61-7.33a1.48 1.48 0 00-.61-.52 2.48 2.48 0 00-1-.15h-1.17v8.72h-3.69v-19.89h3.69zM1666.25 741.55a16.3 16.3 0 01-.56 4.51 9.05 9.05 0 01-1.54 3.16 6 6 0 01-2.32 1.86 7.1 7.1 0 01-5.76 0 6.08 6.08 0 01-2.3-1.86 9 9 0 01-1.52-3.16 18.77 18.77 0 010-9 9.12 9.12 0 011.52-3.16 6.28 6.28 0 012.3-1.86 7.1 7.1 0 015.76 0 6.18 6.18 0 012.32 1.86 9.14 9.14 0 011.54 3.16 16.2 16.2 0 01.56 4.49zm-3.5 0a16.88 16.88 0 00-.32-3.57 7.26 7.26 0 00-.84-2.25 3.07 3.07 0 00-1.22-1.17 3.26 3.26 0 00-1.42-.34 3.18 3.18 0 00-1.41.34 3 3 0 00-1.2 1.17 7 7 0 00-.83 2.25 20.71 20.71 0 000 7.14 7 7 0 00.83 2.25 3 3 0 001.2 1.17 3.05 3.05 0 001.41.34 3.12 3.12 0 001.42-.34 3.07 3.07 0 001.22-1.17 7.26 7.26 0 00.84-2.25 16.75 16.75 0 00.32-3.57zM1680.39 748.32a1.17 1.17 0 01.87.31 1 1 0 01.33.81v2H1668v-1.12a1.94 1.94 0 01.15-.72 1.79 1.79 0 01.46-.68l6-6q.76-.76 1.35-1.47a10.35 10.35 0 001-1.38 6.84 6.84 0 00.61-1.4 5.16 5.16 0 00.21-1.49 3.68 3.68 0 00-.2-1.25 2.39 2.39 0 00-.59-.91 2.33 2.33 0 00-.9-.56 3.67 3.67 0 00-1.19-.18 3.41 3.41 0 00-1.12.17 2.94 2.94 0 00-.91.48 2.7 2.7 0 00-.67.72 2.84 2.84 0 00-.41.9 1.54 1.54 0 01-.61.84 1.69 1.69 0 01-1.07.1l-1.78-.32a7.2 7.2 0 01.79-2.5 6.1 6.1 0 011.48-1.8 6.3 6.3 0 012-1.09 8.13 8.13 0 012.46-.36 7.42 7.42 0 012.51.41 5.7 5.7 0 012 1.14 5.35 5.35 0 011.27 1.79 5.73 5.73 0 01.45 2.31 6.37 6.37 0 01-.32 2 8.88 8.88 0 01-.87 1.78 11.36 11.36 0 01-1.27 1.65c-.48.53-1 1.07-1.52 1.62l-4.48 4.57a10 10 0 011.29-.3 7.4 7.4 0 011.21-.1zM1394.35 881.67v19.84h-3.25v-12.82c0-.51 0-1.06.08-1.66l-6 11.27a1.37 1.37 0 01-1.3.81h-.52a1.37 1.37 0 01-1.3-.81L1376 887c0 .3 0 .6.07.89s0 .57 0 .81v12.82h-3.26v-19.85h3.19a1.14 1.14 0 01.33.07.72.72 0 01.26.18 1.57 1.57 0 01.23.33l5.94 11c.15.29.3.59.43.9s.26.63.39 1c.13-.34.26-.66.4-1s.28-.62.44-.91l5.86-11a1.27 1.27 0 01.23-.33.68.68 0 01.27-.18 1 1 0 01.32-.07h3.21zM1405.22 881.67a11.33 11.33 0 013.44.46 6.7 6.7 0 012.41 1.31 5.12 5.12 0 011.4 2 6.84 6.84 0 01.46 2.55 7 7 0 01-.48 2.64 5.53 5.53 0 01-1.44 2.07 6.6 6.6 0 01-2.41 1.34 10.43 10.43 0 01-3.38.49h-2.76v7h-3.69v-19.86zm0 10a5.52 5.52 0 001.77-.25 3.4 3.4 0 001.26-.73 2.89 2.89 0 00.74-1.15 4.29 4.29 0 00.25-1.52 3.89 3.89 0 00-.25-1.44 2.86 2.86 0 00-.74-1.1 3.27 3.27 0 00-1.25-.69 5.85 5.85 0 00-1.78-.24h-2.76v7.12zM1419.45 890h.86a2.4 2.4 0 00.87-.14 1.53 1.53 0 00.59-.46l5.47-6.93a2 2 0 01.72-.61 2.26 2.26 0 011-.17h3.18l-6.68 8.24a3.6 3.6 0 01-1.22 1.07 2.93 2.93 0 01.81.46 3.58 3.58 0 01.7.78l6.89 9.29h-3.26a2 2 0 01-1-.19 1.55 1.55 0 01-.54-.54l-5.61-7.33a1.56 1.56 0 00-.61-.52 2.48 2.48 0 00-1-.15h-1.17v8.73h-3.69v-19.86h3.69zM1447.59 891.59a16.32 16.32 0 01-.55 4.51 9.14 9.14 0 01-1.54 3.16 6.18 6.18 0 01-2.32 1.86 6.81 6.81 0 01-2.89.61 6.72 6.72 0 01-2.87-.61 6.28 6.28 0 01-2.3-1.86 9.12 9.12 0 01-1.52-3.16 18.81 18.81 0 010-9 9.07 9.07 0 011.52-3.15 6.08 6.08 0 012.3-1.86 6.72 6.72 0 012.87-.61 6.81 6.81 0 012.89.61 6 6 0 012.32 1.86 9.09 9.09 0 011.54 3.15 16.35 16.35 0 01.55 4.49zm-3.49 0a16.75 16.75 0 00-.32-3.57 7.26 7.26 0 00-.84-2.25 3.07 3.07 0 00-1.22-1.17 3.13 3.13 0 00-1.43-.34 3 3 0 00-1.4.34 2.91 2.91 0 00-1.2 1.17 7 7 0 00-.83 2.25 20.71 20.71 0 000 7.14 7 7 0 00.83 2.25 3 3 0 001.2 1.17 3.17 3.17 0 001.4.34 3.27 3.27 0 001.43-.34 3.14 3.14 0 001.22-1.17 7.26 7.26 0 00.84-2.25 16.88 16.88 0 00.32-3.57zM1462.48 899v2.54h-11V899h4v-11.6-1.41l-2.86 2.39a1.2 1.2 0 01-.48.24 1.19 1.19 0 01-.46 0 .92.92 0 01-.37-.14.7.7 0 01-.25-.23l-1.07-1.46 6.05-5.15h2.79V899zM259.93 453.51v19.85h-3.25v-12.82a16.4 16.4 0 01.08-1.66l-6 11.27a1.38 1.38 0 01-1.3.81h-.52a1.4 1.4 0 01-1.31-.81l-6.06-11.31c0 .3.05.6.07.89s0 .56 0 .81v12.82h-3.25v-19.85h3.21a1.14 1.14 0 01.33.07.69.69 0 01.26.17 2.36 2.36 0 01.22.33l5.95 11c.15.3.29.6.43.91l.39 1c.13-.34.26-.67.4-1a8.51 8.51 0 01.44-.91l5.85-11a2.36 2.36 0 01.24-.33.65.65 0 01.27-.17 1 1 0 01.32-.07h.42zM270.8 453.51a11.35 11.35 0 013.44.47 6.71 6.71 0 012.4 1.3 5.25 5.25 0 011.41 2 6.84 6.84 0 01.46 2.55 7 7 0 01-.48 2.64 5.53 5.53 0 01-1.44 2.07 6.75 6.75 0 01-2.41 1.34 10.72 10.72 0 01-3.38.48H268v7h-3.69v-19.85zm0 10a5.6 5.6 0 001.77-.25 3.41 3.41 0 001.25-.73 2.87 2.87 0 00.75-1.15 4.33 4.33 0 00.25-1.52 3.89 3.89 0 00-.25-1.44 2.78 2.78 0 00-.74-1.1 3.35 3.35 0 00-1.25-.69 5.9 5.9 0 00-1.78-.24H268v7.12zM285 461.83h.86a2.4 2.4 0 00.87-.14 1.53 1.53 0 00.59-.46l5.47-6.93a1.9 1.9 0 01.72-.61 2.22 2.22 0 011-.18h3.18l-6.69 8.25a3.82 3.82 0 01-1.22 1.07 2.7 2.7 0 01.81.46 3.58 3.58 0 01.7.78l6.88 9.29h-3.25a2 2 0 01-1-.19 1.55 1.55 0 01-.54-.54l-5.61-7.33a1.48 1.48 0 00-.61-.52 2.57 2.57 0 00-1-.15H285v8.73h-3.69v-19.85H285zM313.17 463.44a16.25 16.25 0 01-.55 4.5 9.37 9.37 0 01-1.54 3.17 6.26 6.26 0 01-2.32 1.86 7 7 0 01-2.89.61A6.87 6.87 0 01303 473a6.2 6.2 0 01-2.3-1.86 9.17 9.17 0 01-1.52-3.17 18.77 18.77 0 010-9 9.21 9.21 0 011.52-3.16 6.2 6.2 0 012.3-1.86 6.87 6.87 0 012.87-.61 7 7 0 012.89.61 6.26 6.26 0 012.32 1.86 9.41 9.41 0 011.54 3.16 16.3 16.3 0 01.55 4.47zm-3.5 0a16.83 16.83 0 00-.31-3.57 7 7 0 00-.85-2.25 3.09 3.09 0 00-1.21-1.18 3.26 3.26 0 00-1.43-.33 3.16 3.16 0 00-1.4.33 3 3 0 00-1.2 1.18 7 7 0 00-.83 2.25 20.65 20.65 0 000 7.13 6.85 6.85 0 00.83 2.25 3 3 0 001.2 1.18 3.16 3.16 0 001.4.33 3.26 3.26 0 001.43-.33 3.09 3.09 0 001.21-1.18 6.83 6.83 0 00.85-2.25 16.79 16.79 0 00.31-3.56zM328.84 453.51V455a3.5 3.5 0 01-.13 1.07 5 5 0 01-.28.67l-7.52 15.48a2.18 2.18 0 01-.66.82 1.79 1.79 0 01-1.13.34h-2.46l7.67-15.17c.17-.31.34-.59.51-.85a6.74 6.74 0 01.57-.75h-9.49a.74.74 0 01-.55-.24.7.7 0 01-.23-.54v-2.3zM259.93 527.62v19.84h-3.25v-12.82a16.54 16.54 0 01.08-1.66l-6 11.27a1.38 1.38 0 01-1.3.81h-.52a1.4 1.4 0 01-1.31-.81l-6.06-11.31c0 .3.05.6.07.89s0 .57 0 .81v12.82h-3.25v-19.84h3.21a1.14 1.14 0 01.33.07.87.87 0 01.26.18 1.57 1.57 0 01.22.33l5.95 11c.15.29.29.59.43.9l.39 1c.13-.34.26-.66.4-1a9.54 9.54 0 01.44-.91l5.85-11a1.57 1.57 0 01.24-.33.8.8 0 01.27-.18 1 1 0 01.32-.07h3.21zM270.8 527.62a11.37 11.37 0 013.44.46 6.57 6.57 0 012.4 1.31 5.21 5.21 0 011.41 2 6.84 6.84 0 01.46 2.55 7 7 0 01-.48 2.64 5.45 5.45 0 01-1.44 2.07 6.61 6.61 0 01-2.41 1.35 10.72 10.72 0 01-3.38.48H268v7h-3.69v-19.86zm0 10a5.6 5.6 0 001.77-.25 3.28 3.28 0 001.25-.73 2.81 2.81 0 00.75-1.15 4.29 4.29 0 00.25-1.52 3.89 3.89 0 00-.25-1.44 2.86 2.86 0 00-.74-1.1 3.35 3.35 0 00-1.25-.69 5.9 5.9 0 00-1.78-.24H268v7.12zM285 535.93h.86a2.2 2.2 0 00.87-.14 1.53 1.53 0 00.59-.46l5.47-6.93a2 2 0 01.72-.61 2.23 2.23 0 011-.17h3.18l-6.69 8.24a3.86 3.86 0 01-1.22 1.08 2.67 2.67 0 01.81.45 3.58 3.58 0 01.7.78l6.88 9.29h-3.25a2.08 2.08 0 01-1-.18 1.67 1.67 0 01-.54-.55l-5.61-7.33a1.56 1.56 0 00-.61-.52 2.57 2.57 0 00-1-.15H285v8.73h-3.69v-19.84H285zM313.17 537.54a16.32 16.32 0 01-.55 4.51 9.32 9.32 0 01-1.54 3.16 6.26 6.26 0 01-2.32 1.86 6.81 6.81 0 01-2.89.61 6.72 6.72 0 01-2.87-.61 6.2 6.2 0 01-2.3-1.86 9.12 9.12 0 01-1.52-3.16 18.81 18.81 0 010-9 9.07 9.07 0 011.52-3.15 6.2 6.2 0 012.3-1.9 6.72 6.72 0 012.87-.61 6.81 6.81 0 012.89.61 6.26 6.26 0 012.32 1.86 9.27 9.27 0 011.54 3.15 16.35 16.35 0 01.55 4.53zm-3.5 0a16.83 16.83 0 00-.31-3.57 7 7 0 00-.85-2.25 3 3 0 00-1.21-1.17 3.13 3.13 0 00-1.43-.34 3 3 0 00-1.4.34 2.91 2.91 0 00-1.2 1.17 7 7 0 00-.83 2.25 20.71 20.71 0 000 7.14 7 7 0 00.83 2.25 2.91 2.91 0 001.2 1.17 3.17 3.17 0 001.4.34 3.27 3.27 0 001.43-.34 3 3 0 001.21-1.17 7 7 0 00.85-2.25 16.9 16.9 0 00.31-3.57zM321 534.82l-.68.85a5.35 5.35 0 011.24-.44 5.91 5.91 0 011.43-.16 6.54 6.54 0 012.19.37 5.3 5.3 0 011.87 1.12 5.62 5.62 0 011.31 1.86 6.3 6.3 0 01.49 2.59 6.66 6.66 0 01-.51 2.6 6.27 6.27 0 01-1.42 2.12 6.63 6.63 0 01-2.22 1.43 8.17 8.17 0 01-5.71 0 6 6 0 01-3.52-3.61 8.12 8.12 0 01-.48-2.85 8 8 0 01.57-2.88 13.18 13.18 0 011.76-3.06l4.74-6.36a1.92 1.92 0 01.72-.56 2.39 2.39 0 011.09-.23h3zm.77 10.09a3.8 3.8 0 001.49-.28 3.45 3.45 0 001.17-.77 3.5 3.5 0 00.76-1.15 3.86 3.86 0 00.27-1.45 4.09 4.09 0 00-.26-1.53 3 3 0 00-.74-1.15 3.19 3.19 0 00-1.15-.73 4.38 4.38 0 00-1.48-.24 3.85 3.85 0 00-1.47.27 3.31 3.31 0 00-1.13.76 3.44 3.44 0 00-.72 1.16 3.75 3.75 0 00-.27 1.43 4.72 4.72 0 00.23 1.5 3.16 3.16 0 00.67 1.16 3.11 3.11 0 001.11.75 4 4 0 001.54.27zM259.93 620v19.84h-3.25V627a16.54 16.54 0 01.08-1.66l-6 11.27a1.38 1.38 0 01-1.3.81h-.52a1.4 1.4 0 01-1.31-.81l-6.06-11.31c0 .3.05.6.07.89s0 .57 0 .81v12.82h-3.25V620h3.21a1.14 1.14 0 01.33.07.87.87 0 01.26.18 1.57 1.57 0 01.22.33l5.95 11c.15.29.29.59.43.9l.39 1c.13-.34.26-.66.4-1a9.54 9.54 0 01.44-.91l5.85-11a1.57 1.57 0 01.24-.33.8.8 0 01.27-.18 1 1 0 01.32-.07h3.21zM270.8 620a11.37 11.37 0 013.44.46 6.72 6.72 0 012.4 1.31 5.21 5.21 0 011.41 2 6.84 6.84 0 01.46 2.55A7.14 7.14 0 01278 629a5.5 5.5 0 01-1.44 2.06 6.61 6.61 0 01-2.41 1.35 10.72 10.72 0 01-3.38.48H268v7h-3.69V620zm0 10a5.6 5.6 0 001.77-.25 3.28 3.28 0 001.25-.73 2.81 2.81 0 00.75-1.15 4.29 4.29 0 00.25-1.52 3.89 3.89 0 00-.25-1.44 2.75 2.75 0 00-.74-1.09 3.23 3.23 0 00-1.25-.7 5.9 5.9 0 00-1.78-.24H268V630zM285 628.33h.86a2.2 2.2 0 00.87-.14 1.53 1.53 0 00.59-.46l5.47-6.93a2 2 0 01.72-.61 2.23 2.23 0 011-.17h3.18l-6.69 8.25a3.94 3.94 0 01-1.22 1.07 2.91 2.91 0 01.81.45 3.58 3.58 0 01.7.78l6.88 9.29h-3.25a2.08 2.08 0 01-1-.18 1.67 1.67 0 01-.54-.55l-5.61-7.33a1.65 1.65 0 00-.61-.52 2.57 2.57 0 00-1-.15H285v8.73h-3.69V620H285zM313.17 629.94a16.32 16.32 0 01-.55 4.51 9.32 9.32 0 01-1.54 3.16 6.26 6.26 0 01-2.32 1.86 6.81 6.81 0 01-2.89.61 6.72 6.72 0 01-2.87-.61 6.2 6.2 0 01-2.3-1.86 9.12 9.12 0 01-1.52-3.16 18.81 18.81 0 010-9 9.07 9.07 0 011.52-3.15 6.2 6.2 0 012.3-1.86 6.72 6.72 0 012.87-.61 6.81 6.81 0 012.89.61 6.26 6.26 0 012.32 1.86 9.27 9.27 0 011.54 3.15 16.35 16.35 0 01.55 4.49zm-3.5 0a16.83 16.83 0 00-.31-3.57 7 7 0 00-.85-2.25 3 3 0 00-1.21-1.12 3.13 3.13 0 00-1.43-.34 3 3 0 00-1.4.34 2.91 2.91 0 00-1.2 1.17 7 7 0 00-.83 2.25 20.71 20.71 0 000 7.14 7 7 0 00.83 2.25 2.91 2.91 0 001.2 1.17 3.17 3.17 0 001.4.34 3.27 3.27 0 001.43-.34 3 3 0 001.21-1.17 7 7 0 00.85-2.25 16.83 16.83 0 00.31-3.62zM319.43 627.22a12.58 12.58 0 011.26-.2c.41 0 .79-.06 1.17-.06a7.6 7.6 0 012.76.47 5.66 5.66 0 012 1.29 5.33 5.33 0 011.22 1.93 6.61 6.61 0 01.41 2.38 7.28 7.28 0 01-.55 2.88 6.53 6.53 0 01-1.55 2.23 6.76 6.76 0 01-2.34 1.43 8.25 8.25 0 01-2.94.51 7.81 7.81 0 01-1.77-.19 9 9 0 01-2.93-1.26 9.27 9.27 0 01-1.12-.88l1.05-1.44a1 1 0 01.86-.47 1.3 1.3 0 01.7.22c.24.15.51.31.82.48a6.93 6.93 0 001.08.48 4.48 4.48 0 001.5.22 4.22 4.22 0 001.65-.3 3.12 3.12 0 001.19-.85 3.67 3.67 0 00.71-1.29 5.24 5.24 0 00.24-1.62 3.33 3.33 0 00-.94-2.53 3.84 3.84 0 00-2.78-.92 8.88 8.88 0 00-2.89.52l-2.12-.6 1.65-9.63h9.8v1.44a1.61 1.61 0 01-.45 1.18 2.16 2.16 0 01-1.54.45h-5.45z" transform="translate(0 .5)"/>
    <path stroke-width="3.03" fill="none" stroke="#fff" stroke-miterlimit="10" d="M358.34 405.88v-6.4h7.31v-8.23h7.32v-7.32h7.32"/>
    <path class="cls-4" d="M367.48 407.71l19.22-23.78"/>
    <path class="cls-20" d="M750.35 909.2v-11.15h12.75V883.7h12.75v-12.74h12.75"/>
    <path class="cls-21" d="M766.29 912.39l33.46-41.44"/>
    <path class="cls-20" d="M1034.87 909.2v-11.15h-12.75V883.7h-12.75v-12.74h-12.74"/>
    <path class="cls-21" d="M1018.94 912.39l-33.47-41.44"/>
    <path class="cls-2" d="M1532.43 884.25v13.36h-2.19V889v-1.12l-4 7.59a1 1 0 01-.88.54h-.36a.93.93 0 01-.88-.54l-4.08-7.61V897.63h-2.19v-13.38h2.16a.71.71 0 01.22 0 .47.47 0 01.18.12 1 1 0 01.15.22l4 7.42c.1.19.2.4.29.61s.18.42.26.64q.13-.35.27-.66c.09-.21.19-.41.3-.61l3.94-7.4a.78.78 0 01.16-.22.36.36 0 01.18-.12.65.65 0 01.21 0h2.17zM1558.13 884.05L1554 897.4h-2.25l-2.92-9.12a6.71 6.71 0 01-.22-.82c0 .16-.08.3-.11.44l-.12.38-2.95 9.12h-2.25l-4.18-13.35h2.08a1 1 0 01.54.15.76.76 0 01.29.41l2.27 8c0 .2.1.41.14.64s.1.48.15.73c0-.26.1-.5.16-.73s.12-.44.19-.64l2.62-8a1 1 0 01.29-.39.86.86 0 01.53-.17h.73a.86.86 0 01.53.15.88.88 0 01.3.41l2.62 8a10.38 10.38 0 01.35 1.32c.08-.48.17-.93.27-1.32l2.27-8a.72.72 0 01.28-.4.89.89 0 01.54-.16z" transform="translate(0 .5)"/>
    <circle class="cls-2" cx="1525.49" cy="879.96" r="4.31"/>
    <circle class="cls-2" cx="1548.89" cy="879.96" r="3.7"/>
    <path class="cls-2" d="M1521.18 899.05h3.08v10.47h-3.08zM1526.72 899.05h3.08v10.47h-3.08zM1544.58 899.05h2.86v10.47h-2.86zM1549.73 899.05h2.86v10.47h-2.86z"/>
    <path class="cls-2" d="M364.45 329.39v11.8h-1.93v-7.62a8.63 8.63 0 01.05-1l-3.57 6.7a.83.83 0 01-.77.48h-.31a.83.83 0 01-.78-.48l-3.61-6.72v.53a4 4 0 010 .48v7.62h-1.93v-11.8h1.91a.58.58 0 01.19 0 .33.33 0 01.15.11 1 1 0 01.14.19l3.53 6.55c.09.18.18.36.26.54l.23.57.24-.58c.08-.19.17-.37.26-.54l3.48-6.54a1 1 0 01.14-.19.42.42 0 01.16-.11.58.58 0 01.19 0h1.91zM387.15 329.21L383.49 341h-2l-2.56-8a6 6 0 01-.2-.72l-.09.38c0 .12-.07.23-.11.34l-2.6 8.06h-2l-3.66-11.8h1.84a.77.77 0 01.47.14.6.6 0 01.26.36l2 7.06c0 .17.08.36.13.56l.12.64c0-.23.09-.44.14-.64s.11-.39.17-.56l2.32-7.06a.7.7 0 01.26-.34.66.66 0 01.46-.16h.65a.72.72 0 01.46.14.82.82 0 01.27.36l2.31 7.06a8.35 8.35 0 01.31 1.16c.07-.43.15-.82.24-1.16l2-7.06a.54.54 0 01.25-.35.75.75 0 01.47-.15z" transform="translate(0 .5)"/>
    <circle class="cls-2" cx="358.32" cy="325.66" r="3.81"/>
    <circle class="cls-2" cx="378.99" cy="325.66" r="3.26"/>
    <path class="cls-2" d="M354.51 342.52h2.72v9.25h-2.72zM359.41 342.52h2.72v9.25h-2.72zM375.18 342.52h2.53v9.25h-2.53zM379.73 342.52h2.53v9.25h-2.53z"/>
    <path class="cls-2" d="M881.5 898.75v3.33h-12.7v-21.69h4v18.36zM888.15 882.21a2.12 2.12 0 01-.2.9 2.37 2.37 0 01-.52.73 2.29 2.29 0 01-.75.5 2.24 2.24 0 01-.93.19 2.15 2.15 0 01-.91-.19 2.25 2.25 0 01-.74-.5 2.52 2.52 0 01-.51-.73 2.26 2.26 0 01-.18-.9 2.41 2.41 0 01.18-.93 2.49 2.49 0 01.51-.75 2.44 2.44 0 01.74-.51 2.31 2.31 0 01.91-.18 2.41 2.41 0 01.93.18 2.49 2.49 0 01.75.51 2.34 2.34 0 01.52.75 2.25 2.25 0 01.2.93zm-.51 4.48v15.39h-3.72v-15.39zM906.16 889.47v8.34a1.62 1.62 0 00.36 1.12 1.22 1.22 0 001 .41 1.64 1.64 0 00.58-.09 2.53 2.53 0 00.4-.17l.31-.17a.47.47 0 01.27-.08.4.4 0 01.27.08 1.15 1.15 0 01.23.25l1.11 1.8a5.61 5.61 0 01-1.86 1 6.78 6.78 0 01-2.16.34 4.09 4.09 0 01-3.09-1.13 4.36 4.36 0 01-1.08-3.13v-8.59h-6.3v12.61h-3.7v-12.6l-1.34-.21a1.56 1.56 0 01-.7-.31.76.76 0 01-.26-.62v-1.51h2.3v-1.14a6.77 6.77 0 01.39-2.37 5.09 5.09 0 011.14-1.79 5 5 0 011.81-1.12 6.94 6.94 0 012.4-.39 6.63 6.63 0 012 .28l-.07 1.86a.6.6 0 01-.12.34.7.7 0 01-.28.19 1.24 1.24 0 01-.4.09 3.64 3.64 0 01-.48 0 4.29 4.29 0 00-1.18.14 2 2 0 00-.87.49 2.26 2.26 0 00-.55.93 4.61 4.61 0 00-.19 1.44v1h6.54l.8-4.22a.8.8 0 01.28-.46.85.85 0 01.54-.17h1.92v4.85h4.11v2.64zM1715.41 2323.91v25.39h-2.71a2.42 2.42 0 01-1-.2 2.56 2.56 0 01-.82-.69l-12.66-16.1c0 .41.06.81.08 1.2s0 .77 0 1.11v14.68h-4.64v-25.39H1696.99a1.2 1.2 0 01.43.13 1.42 1.42 0 01.37.25 2.7 2.7 0 01.38.42l12.75 16.17c-.05-.44-.09-.87-.11-1.29s0-.8 0-1.18v-14.52zM1743.52 2344.87a1.7 1.7 0 011.23.44 1.54 1.54 0 01.45 1.15v2.84h-17.61v-1.58a2.85 2.85 0 01.2-1 2.52 2.52 0 01.64-1l7.53-7.54c.64-.64 1.2-1.25 1.69-1.84a12.71 12.71 0 001.23-1.74 7.57 7.57 0 00.74-1.72 6.93 6.93 0 00.24-1.84 3.49 3.49 0 00-.88-2.58 3.29 3.29 0 00-2.46-.88 3.8 3.8 0 00-1.29.2 3.75 3.75 0 00-1 .55 3.89 3.89 0 00-.8.82 3.61 3.61 0 00-.49 1 2 2 0 01-.84 1.17 2.41 2.41 0 01-1.52.13l-2.55-.46a9.42 9.42 0 011-3.25 7.71 7.71 0 011.92-2.33 7.94 7.94 0 012.64-1.39 10.74 10.74 0 013.21-.46 9.77 9.77 0 013.28.53 7.56 7.56 0 012.53 1.49 6.4 6.4 0 011.62 2.3 7.39 7.39 0 01.58 3 8 8 0 01-.4 2.59 10.3 10.3 0 01-1.09 2.27 15.56 15.56 0 01-1.61 2.09c-.6.68-1.24 1.36-1.92 2.05l-5.39 5.51a16.15 16.15 0 011.77-.41 9.7 9.7 0 011.64-.15zM1761.35 2336.07a6.28 6.28 0 013.36 2.32 6.46 6.46 0 011 3.72 7.2 7.2 0 01-.65 3.08 6.75 6.75 0 01-1.82 2.35 8.45 8.45 0 01-2.82 1.51 12.76 12.76 0 01-7.28 0 8.5 8.5 0 01-2.81-1.51 6.63 6.63 0 01-1.82-2.35 7.2 7.2 0 01-.65-3.08 6.46 6.46 0 011-3.72 6.28 6.28 0 013.36-2.32 5.8 5.8 0 01-2.69-2.21 6.22 6.22 0 01-.88-3.37 6.33 6.33 0 01.59-2.72 6.45 6.45 0 011.68-2.17 7.8 7.8 0 012.56-1.45 10.45 10.45 0 016.51 0 7.8 7.8 0 012.56 1.45 6.3 6.3 0 011.67 2.17 6.7 6.7 0 01-.28 6.09 5.8 5.8 0 01-2.59 2.21zm-4.52 9.82a4.68 4.68 0 001.75-.3 3.56 3.56 0 001.23-.81 3.33 3.33 0 00.73-1.23 4.47 4.47 0 00.25-1.53 4.16 4.16 0 00-1-2.93 4.8 4.8 0 00-6 0 4.11 4.11 0 00-1 2.93 4.72 4.72 0 00.24 1.53 3.49 3.49 0 00.74 1.23 3.56 3.56 0 001.23.81 4.66 4.66 0 001.83.3zm0-18.69a3.77 3.77 0 00-1.53.28 3 3 0 00-1 .74 3 3 0 00-.6 1.08 4.16 4.16 0 00-.19 1.27 6.46 6.46 0 00.15 1.4 3.37 3.37 0 00.55 1.2 2.76 2.76 0 001 .83 4.39 4.39 0 003.29 0 2.84 2.84 0 001-.83 3.19 3.19 0 00.54-1.2 5.89 5.89 0 00.16-1.4 4.16 4.16 0 00-.19-1.27 3 3 0 00-.6-1.08 3 3 0 00-1.05-.74 3.78 3.78 0 00-1.53-.28zM1699 2370v7h9.13v4.13H1699v10.13h-5.29v-25.39h16.17v4.13zM1717.39 2365.21v26.09h-4.83v-26.09zM1729.55 2373a10 10 0 013.7.65 8.19 8.19 0 012.85 1.84 8.36 8.36 0 011.84 2.91 12.05 12.05 0 010 7.75 8 8 0 01-4.69 4.79 10.15 10.15 0 01-3.7.64 10.3 10.3 0 01-3.72-.64 8 8 0 01-4.7-4.79 11.71 11.71 0 010-7.75 7.92 7.92 0 014.7-4.75 10.09 10.09 0 013.72-.65zm0 15a3.5 3.5 0 003.07-1.43 9.55 9.55 0 000-8.47 4.07 4.07 0 00-6.18 0 9.47 9.47 0 000 8.47 3.53 3.53 0 003.11 1.37zM1749.76 2373a10 10 0 013.7.65 8 8 0 012.85 1.84 8.36 8.36 0 011.84 2.91 12.05 12.05 0 010 7.75 8.45 8.45 0 01-1.84 2.93 8.19 8.19 0 01-2.85 1.86 11 11 0 01-7.41 0 8.14 8.14 0 01-2.86-1.86 8.32 8.32 0 01-1.85-2.93 11.71 11.71 0 010-7.75 8.24 8.24 0 011.85-2.91 8 8 0 012.86-1.84 10 10 0 013.71-.65zm0 15a3.5 3.5 0 003.07-1.43 9.55 9.55 0 000-8.47 4.07 4.07 0 00-6.18 0 9.47 9.47 0 000 8.47 3.53 3.53 0 003.11 1.37zM1766.37 2376.23a8.15 8.15 0 012-2.43 4.06 4.06 0 012.62-.89 3.27 3.27 0 012 .57l-.32 3.57a.75.75 0 01-.27.49.9.9 0 01-.5.13 6.4 6.4 0 01-.8-.08 7 7 0 00-1-.08 3.32 3.32 0 00-1.18.19 3 3 0 00-.92.54 4.14 4.14 0 00-.73.86 9.61 9.61 0 00-.6 1.16v11h-4.83v-18h2.85a1.49 1.49 0 011 .26 1.68 1.68 0 01.4.91zM1782.54 2378.72h9.24v4h-9.24zM1814.23 2389.52v2.78h-12v-2.78h4.39v-12.64c0-.5 0-1 .05-1.55l-3.13 2.61a1.27 1.27 0 01-.53.27 1.16 1.16 0 01-.49 0 1.25 1.25 0 01-.41-.15 1.16 1.16 0 01-.28-.25l-1.16-1.6 6.61-5.63h3v18.94z" transform="translate(0 .5)"/>
    <path class="cls-3" d="M400.36 2861.15c196.78.35 395.78.35 592.78.35 0-26-4.66 0 0 0v-117c1 0 2-1 3-1a41 41 0 0011 1c52-3 103-3 155-4 2-3 1-6 1-9 1-29 2-58 0-87 0-5-1-9 .51-14M1312.78 3024.8c-304.64-.3-606.64-.3-912-.15" transform="translate(0 .5)"/>
    <path class="cls-13" d="M456.47 3025.3h114.36v88.74H456.47zM570.83 3025.3h114.36v88.74H570.83z"/>
    <path class="cls-13" d="M685.18 3025.3h114.36v88.74H685.18z"/>
    <path class="cls-14" d="M835.66 3025.3h154.61v88.74H835.66zM837.66 2772.3h154.61v88.74H837.66z"/>
    <path class="cls-22" d="M1274.44 3025.5h81.88v88.24h-81.88zM1356.44 3025.5h81.88v88.24h-81.88z"/>
    <path class="cls-17" d="M1164.57 2629.63h147.75v89.2h-147.75z"/>
    <path stroke-width="3.41" fill="none" stroke="#fff" stroke-miterlimit="10" d="M1312.57 2682.63h95.57v89.2h-95.57z"/>
    <path stroke-width="3.66" fill="none" stroke="#fff" stroke-miterlimit="10" d="M1408.57 2682.63h110.57v89.2h-110.57z"/>
    <path class="cls-18" d="M1105.73 3025.76h80.51v88.74h-80.51z"/>
    <path class="cls-20" d="M488.49 3087.2v-11.15h12.75v-14.35h12.75v-12.75h12.75"/>
    <path class="cls-21" d="M504.43 3090.39l33.46-41.44"/>
    <path class="cls-20" d="M773.01 3087.2v-11.15h-12.75v-14.35h-12.75v-12.75h-12.75"/>
    <path class="cls-21" d="M757.07 3090.39l-33.46-41.44"/>
    <path class="cls-2" d="M1142.56 3062.25v13.36h-2.18V3067v-1.12l-4 7.59a.93.93 0 01-.87.54h-.35a.93.93 0 01-.88-.54l-4.09-7.61V3075.63H1128v-13.36h2.16a.79.79 0 01.22 0 .38.38 0 01.17.12.78.78 0 01.16.22l4 7.42c.1.19.2.4.29.61s.17.42.26.64l.27-.66c.09-.21.19-.41.29-.61l3.95-7.4a.78.78 0 01.16-.22.36.36 0 01.18-.12.65.65 0 01.21 0h2.16zM1168.27 3062.05l-4.15 13.35h-2.24l-2.92-9.12a6.71 6.71 0 01-.22-.82c0 .16-.08.3-.11.44l-.12.38-3 9.12h-2.25l-4.14-13.35h2.08a1 1 0 01.54.15.76.76 0 01.29.41l2.27 8c.05.2.1.41.14.64s.1.48.15.73a7.17 7.17 0 01.16-.73c.06-.23.12-.44.19-.64l2.62-8a1 1 0 01.29-.39.86.86 0 01.53-.17h.73a.88.88 0 01.53.15 1 1 0 01.3.41l2.62 8a12.37 12.37 0 01.35 1.32c.08-.48.17-.93.27-1.32l2.27-8a.72.72 0 01.28-.4.89.89 0 01.54-.16z" transform="translate(0 .5)"/>
    <circle class="cls-2" cx="1135.63" cy="3057.96" r="4.31"/>
    <circle class="cls-2" cx="1159.03" cy="3057.96" r="3.7"/>
    <path class="cls-2" d="M1131.31 3077.05h3.08v10.47h-3.08zM1136.86 3077.05h3.08v10.47h-3.08zM1154.72 3077.05h2.86v10.47h-2.86zM1159.86 3077.05h2.86v10.47h-2.86z"/>
    <path class="cls-13" d="M991.16 3025.83h114.36v88.74H991.16z"/>
    <path class="cls-20" d="M1078.99 3087.73v-11.16h-12.75v-14.34h-12.75v-12.75h-12.75"/>
    <path class="cls-21" d="M1063.05 3090.92l-33.47-41.44"/>
    <path class="cls-22" d="M1312.64 2718.5v54h207l-4 253h-77"/>
    <path class="cls-3" d="M402.14 3027v-165.46"/>
    <path class="cls-2" d="M622.44 3076.57v3.33h-12.7v-21.69h4v18.36zM629.09 3060a2.12 2.12 0 01-.2.9 2.52 2.52 0 01-.51.73 2.45 2.45 0 01-.76.5 2.24 2.24 0 01-.93.19 2.18 2.18 0 01-.91-.19 2.36 2.36 0 01-.74-.5 2.31 2.31 0 01-.5-.73 2.11 2.11 0 01-.19-.9 2.24 2.24 0 01.19-.93 2.29 2.29 0 01.5-.75 2.57 2.57 0 01.74-.51 2.34 2.34 0 01.91-.18 2.41 2.41 0 01.93.18 2.67 2.67 0 01.76.51 2.49 2.49 0 01.51.75 2.25 2.25 0 01.2.93zm-.51 4.48v15.39h-3.72v-15.39zM647.1 3067.29v8.34a1.62 1.62 0 00.36 1.12 1.22 1.22 0 001 .41 1.61 1.61 0 00.58-.09 2.67 2.67 0 00.41-.17l.3-.17a.47.47 0 01.27-.08.4.4 0 01.27.08 1.15 1.15 0 01.23.25l1.11 1.8a5.46 5.46 0 01-1.85 1 6.62 6.62 0 01-2.17.35 4.09 4.09 0 01-3.09-1.13 4.36 4.36 0 01-1.08-3.13v-8.59h-6.26v12.61h-3.7v-12.6l-1.34-.21a1.47 1.47 0 01-.69-.31.74.74 0 01-.27-.62v-1.51h2.3v-1.14a6.55 6.55 0 01.4-2.37 4.78 4.78 0 012.94-2.91 6.94 6.94 0 012.4-.4 6.63 6.63 0 012 .29l-.07 1.86a.6.6 0 01-.12.34.63.63 0 01-.28.19 1.18 1.18 0 01-.4.09 3.64 3.64 0 01-.48 0 4.17 4.17 0 00-1.17.14 2 2 0 00-.88.49 2.37 2.37 0 00-.55.93 4.93 4.93 0 00-.19 1.44v1h6.54l.8-4.22a.8.8 0 01.28-.46.85.85 0 01.54-.17h1.92v4.85h4.11v2.64zM894.16 2802.61a14.8 14.8 0 013.65.4 7.05 7.05 0 012.48 1.16 4.43 4.43 0 011.42 1.81 6.18 6.18 0 01.45 2.4 4.81 4.81 0 01-.23 1.47 4.29 4.29 0 01-.69 1.3 5.31 5.31 0 01-1.2 1.1 7 7 0 01-1.74.84c3 .67 4.47 2.29 4.47 4.83a6.15 6.15 0 01-.52 2.55 5.59 5.59 0 01-1.53 2 7.25 7.25 0 01-2.48 1.33 10.81 10.81 0 01-3.36.48h-8.19v-21.69zm-3.43 3.12v6.27h3.21a5.42 5.42 0 003.13-.75 2.72 2.72 0 001-2.38 2.84 2.84 0 00-1-2.42 5 5 0 00-3-.72zm4.08 15.42a5.73 5.73 0 001.89-.27 3.21 3.21 0 001.22-.72 2.53 2.53 0 00.66-1 3.82 3.82 0 00.2-1.28 3.37 3.37 0 00-.22-1.26 2.32 2.32 0 00-.71-1 3.23 3.23 0 00-1.23-.61 7 7 0 00-1.83-.21h-4.06v6.36zM910.48 2811.7h.95a2.33 2.33 0 00.94-.16 1.56 1.56 0 00.65-.5l6-7.58a2.14 2.14 0 01.79-.66 2.45 2.45 0 011-.19h3.48l-7.3 9a4.15 4.15 0 01-1.34 1.16 3.33 3.33 0 01.9.51 3.91 3.91 0 01.75.84l7.53 10.16h-3.53a2.25 2.25 0 01-1.07-.2 1.72 1.72 0 01-.6-.6l-6.13-8a1.64 1.64 0 00-.66-.58 2.79 2.79 0 00-1.08-.16h-1.28v9.54h-4v-21.69h4zM939.31 2820.85a1.33 1.33 0 011 .34 1.18 1.18 0 01.35.89v2.22h-14.92v-1.23a2.14 2.14 0 01.16-.79 2 2 0 01.5-.74l6.58-6.6c.55-.56 1-1.1 1.48-1.61a9.52 9.52 0 001.09-1.51 7.5 7.5 0 00.67-1.52 5.84 5.84 0 00.23-1.63 3.82 3.82 0 00-.23-1.37 2.76 2.76 0 00-.63-1 2.79 2.79 0 00-1-.61 4.08 4.08 0 00-1.3-.2 3.67 3.67 0 00-1.22.19 3.27 3.27 0 00-1 .52 3.46 3.46 0 00-.74.79 3.42 3.42 0 00-.45 1 1.59 1.59 0 01-.66.91 1.84 1.84 0 01-1.17.11l-1.95-.34a8 8 0 01.87-2.74 6.47 6.47 0 013.84-3.15 8.66 8.66 0 012.69-.4 8.24 8.24 0 012.74.44 6.25 6.25 0 012.13 1.25 5.67 5.67 0 011.38 2 6.33 6.33 0 01.5 2.54 6.89 6.89 0 01-.35 2.22 9.25 9.25 0 01-.95 1.95 12.77 12.77 0 01-1.39 1.8c-.53.58-1.08 1.17-1.66 1.77l-4.89 5a10.49 10.49 0 011.4-.33 9 9 0 011.33-.11zM894.16 3056.61a14.8 14.8 0 013.65.4 7.05 7.05 0 012.48 1.16 4.43 4.43 0 011.42 1.81 6.18 6.18 0 01.45 2.4 4.81 4.81 0 01-.23 1.47 4.29 4.29 0 01-.69 1.3 5.31 5.31 0 01-1.2 1.1 7 7 0 01-1.74.84c3 .67 4.47 2.29 4.47 4.83a6.15 6.15 0 01-.52 2.55 5.59 5.59 0 01-1.53 2 7.25 7.25 0 01-2.48 1.33 10.81 10.81 0 01-3.36.48h-8.19v-21.69zm-3.43 3.12v6.27h3.21a5.42 5.42 0 003.13-.75 2.72 2.72 0 001-2.38 2.84 2.84 0 00-1-2.42 5 5 0 00-3-.72zm4.08 15.42a5.73 5.73 0 001.89-.27 3.21 3.21 0 001.22-.72 2.53 2.53 0 00.66-1 3.82 3.82 0 00.2-1.28 3.37 3.37 0 00-.22-1.26 2.32 2.32 0 00-.71-1 3.23 3.23 0 00-1.23-.61 7 7 0 00-1.83-.21h-4.06v6.36zM910.48 3065.7h.95a2.33 2.33 0 00.94-.16 1.56 1.56 0 00.65-.5l6-7.58a2.14 2.14 0 01.79-.66 2.45 2.45 0 011-.19h3.48l-7.3 9a4.15 4.15 0 01-1.34 1.16 3.33 3.33 0 01.9.51 3.91 3.91 0 01.75.84l7.53 10.16h-3.53a2.25 2.25 0 01-1.07-.2 1.72 1.72 0 01-.6-.6l-6.13-8a1.64 1.64 0 00-.66-.58 2.79 2.79 0 00-1.08-.16h-1.28v9.54h-4v-21.69h4zM940.12 3075.52v2.78h-12v-2.78h4.4v-12.64-1.55l-3.12 2.61a1.34 1.34 0 01-.53.27 1.16 1.16 0 01-.49 0 1.3 1.3 0 01-.42-.15.94.94 0 01-.27-.25l-1.17-1.6 6.62-5.63h3v18.94zM1219.16 2662.61a14.8 14.8 0 013.65.4 7.05 7.05 0 012.48 1.16 4.43 4.43 0 011.42 1.81 6.18 6.18 0 01.45 2.4 4.81 4.81 0 01-.23 1.47 4.29 4.29 0 01-.69 1.3 5.31 5.31 0 01-1.2 1.1 7 7 0 01-1.74.84c3 .67 4.47 2.29 4.47 4.83a6.15 6.15 0 01-.52 2.55 5.59 5.59 0 01-1.53 2 7.25 7.25 0 01-2.48 1.33 10.81 10.81 0 01-3.36.48h-8.19v-21.69zm-3.43 3.12v6.27h3.21a5.42 5.42 0 003.13-.75 2.72 2.72 0 001-2.38 2.84 2.84 0 00-1-2.42 5 5 0 00-3-.72zm4.08 15.42a5.73 5.73 0 001.89-.27 3.21 3.21 0 001.22-.72 2.53 2.53 0 00.66-1 3.82 3.82 0 00.2-1.28 3.37 3.37 0 00-.22-1.26 2.32 2.32 0 00-.71-1 3.23 3.23 0 00-1.23-.61 7 7 0 00-1.83-.21h-4.06v6.36zM1235.48 2671.7h1a2.33 2.33 0 00.94-.16 1.56 1.56 0 00.65-.5l6-7.58a2.14 2.14 0 01.79-.66 2.45 2.45 0 011-.19h3.48l-7.3 9a4.15 4.15 0 01-1.34 1.16 3.33 3.33 0 01.9.51 3.91 3.91 0 01.75.84l7.53 10.16h-3.55a2.25 2.25 0 01-1.07-.2 1.72 1.72 0 01-.6-.6l-6.13-8a1.64 1.64 0 00-.66-.58 2.79 2.79 0 00-1.08-.16h-1.28v9.54h-4v-21.69h4zM1251.22 2668.66a8 8 0 01.87-2.74 6.65 6.65 0 011.61-2 6.77 6.77 0 012.22-1.18 8.71 8.71 0 012.69-.4 7.94 7.94 0 012.71.43 6.11 6.11 0 012.06 1.18 5.15 5.15 0 011.77 4 6.31 6.31 0 01-.23 1.83 4.27 4.27 0 01-.67 1.37 3.94 3.94 0 01-1.08 1 7.19 7.19 0 01-1.45.68 5.66 5.66 0 012.91 1.87 5.07 5.07 0 011 3.17 6.53 6.53 0 01-.6 2.86 6.1 6.1 0 01-1.62 2.09 7 7 0 01-2.36 1.28 9.24 9.24 0 01-2.85.44 9.71 9.71 0 01-2.85-.37 6.18 6.18 0 01-2.11-1.12 6.55 6.55 0 01-1.53-1.8 12.15 12.15 0 01-1.08-2.46l1.63-.67a1.94 1.94 0 011.21-.14 1.14 1.14 0 01.82.6c.18.35.38.7.59 1a4.48 4.48 0 00.77.91 3.66 3.66 0 002.51.89 4 4 0 001.65-.31 3.57 3.57 0 001.18-.8 3.37 3.37 0 00.93-2.33 5.58 5.58 0 00-.16-1.41 2.09 2.09 0 00-.69-1.09 3.86 3.86 0 00-1.51-.71 10.86 10.86 0 00-2.63-.25v-2.64a9.36 9.36 0 002.26-.25 4.19 4.19 0 001.44-.67 2.33 2.33 0 00.74-1 4 4 0 00.21-1.32 3 3 0 00-.86-2.32 3.17 3.17 0 00-2.28-.8 3.61 3.61 0 00-1.21.19 3.52 3.52 0 00-1 .52 3.46 3.46 0 00-.74.79 3.42 3.42 0 00-.45 1 1.56 1.56 0 01-.67.91 1.82 1.82 0 01-1.16.11zM1341.69 2717.46a14.33 14.33 0 013.65.4 6.88 6.88 0 012.48 1.16 4.52 4.52 0 011.42 1.81 6.11 6.11 0 01.45 2.4 4.81 4.81 0 01-.23 1.47 4.41 4.41 0 01-.69 1.3 5.31 5.31 0 01-1.2 1.1 7.41 7.41 0 01-1.74.84q4.47 1 4.47 4.83a6.15 6.15 0 01-.52 2.55 5.59 5.59 0 01-1.53 2 7.25 7.25 0 01-2.48 1.33 10.81 10.81 0 01-3.36.48h-8.19v-21.69zm-3.43 3.12v6.27h3.21a5.42 5.42 0 003.13-.75 2.74 2.74 0 001.05-2.39 2.82 2.82 0 00-1-2.41 5 5 0 00-3-.72zm4.08 15.42a5.73 5.73 0 001.89-.27 3.29 3.29 0 001.22-.72 2.53 2.53 0 00.66-1.05 3.86 3.86 0 00.2-1.28 3.33 3.33 0 00-.22-1.26 2.32 2.32 0 00-.71-1 3.23 3.23 0 00-1.23-.61 7 7 0 00-1.83-.21h-4.06v6.4zM1358 2726.55h1a2.33 2.33 0 00.94-.16 1.56 1.56 0 00.65-.5l6-7.58a2.2 2.2 0 01.79-.67 2.62 2.62 0 011-.18h3.48l-7.3 9a4.07 4.07 0 01-1.34 1.17 3.3 3.3 0 01.9.5 4.25 4.25 0 01.75.85l7.53 10.16h-3.55a2.25 2.25 0 01-1.07-.2 1.72 1.72 0 01-.6-.6l-6.13-8a1.61 1.61 0 00-.66-.57 2.79 2.79 0 00-1.08-.16H1358v9.54h-4v-21.69h4zM1388.76 2731v2.15a.72.72 0 01-.19.51.7.7 0 01-.56.22h-2v5.3h-3.22v-5.3h-9.15a1 1 0 01-.66-.23 1 1 0 01-.36-.58l-.39-1.87 10.27-13.73h3.5V2731zm-6 0v-7.09a20.15 20.15 0 01.13-2.22l-6.73 9.31zM1442.69 2717.46a14.33 14.33 0 013.65.4 6.88 6.88 0 012.48 1.16 4.52 4.52 0 011.42 1.81 6.11 6.11 0 01.45 2.4 4.81 4.81 0 01-.23 1.47 4.41 4.41 0 01-.69 1.3 5.31 5.31 0 01-1.2 1.1 7.41 7.41 0 01-1.74.84q4.47 1 4.47 4.83a6.15 6.15 0 01-.52 2.55 5.59 5.59 0 01-1.53 2 7.25 7.25 0 01-2.48 1.33 10.81 10.81 0 01-3.36.48h-8.19v-21.69zm-3.43 3.12v6.27h3.21a5.42 5.42 0 003.13-.75 2.74 2.74 0 001.05-2.39 2.82 2.82 0 00-1-2.41 5 5 0 00-3-.72zm4.08 15.42a5.73 5.73 0 001.89-.27 3.29 3.29 0 001.22-.72 2.53 2.53 0 00.66-1.05 3.86 3.86 0 00.2-1.28 3.33 3.33 0 00-.22-1.26 2.32 2.32 0 00-.71-1 3.23 3.23 0 00-1.23-.61 7 7 0 00-1.83-.21h-4.06v6.4zM1459 2726.55h1a2.33 2.33 0 00.94-.16 1.56 1.56 0 00.65-.5l6-7.58a2.2 2.2 0 01.79-.67 2.62 2.62 0 011-.18h3.48l-7.3 9a4.07 4.07 0 01-1.34 1.17 3.3 3.3 0 01.9.5 4.25 4.25 0 01.75.85l7.53 10.16h-3.55a2.25 2.25 0 01-1.07-.2 1.72 1.72 0 01-.6-.6l-6.13-8a1.61 1.61 0 00-.66-.57 2.79 2.79 0 00-1.08-.16H1459v9.54h-4v-21.69h4zM1481 2725.33l-.75.93a6 6 0 011.35-.48 6.56 6.56 0 011.57-.18 7.29 7.29 0 012.4.41 5.72 5.72 0 012 1.22 6.14 6.14 0 011.43 2 7 7 0 01.54 2.84 7.3 7.3 0 01-.56 2.84 7 7 0 01-1.56 2.32 7.21 7.21 0 01-2.42 1.56 8.92 8.92 0 01-6.25 0 6.63 6.63 0 01-3.85-3.95 9 9 0 01-.51-3.11 8.76 8.76 0 01.62-3.14 14 14 0 011.93-3.36l5.17-6.94a2.12 2.12 0 01.79-.62 2.64 2.64 0 011.19-.25h3.3zm.84 11a4.34 4.34 0 001.63-.3 3.71 3.71 0 001.27-.84 3.94 3.94 0 00.83-1.27 4.12 4.12 0 00.3-1.58 4.61 4.61 0 00-.28-1.67 3.36 3.36 0 00-2.07-2 4.67 4.67 0 00-1.62-.27 4.16 4.16 0 00-1.61.3 3.66 3.66 0 00-1.23.83 3.9 3.9 0 00-.79 1.26 4.26 4.26 0 00-.29 1.57 5.27 5.27 0 00.25 1.64 3.49 3.49 0 00.74 1.27 3.33 3.33 0 001.2.82 4.53 4.53 0 001.63.27zM1378.69 3060.46a14.33 14.33 0 013.65.4 6.88 6.88 0 012.48 1.16 4.52 4.52 0 011.42 1.81 6.11 6.11 0 01.45 2.4 4.81 4.81 0 01-.23 1.47 4.41 4.41 0 01-.69 1.3 5.31 5.31 0 01-1.2 1.1 7.41 7.41 0 01-1.74.84q4.47 1 4.47 4.83a6.15 6.15 0 01-.52 2.55 5.59 5.59 0 01-1.53 2 7.25 7.25 0 01-2.48 1.33 10.81 10.81 0 01-3.36.48h-8.19v-21.69zm-3.43 3.12v6.27h3.21a5.42 5.42 0 003.13-.75 2.74 2.74 0 001.05-2.39 2.82 2.82 0 00-1-2.41 5 5 0 00-3-.72zm4.08 15.42a5.73 5.73 0 001.89-.27 3.29 3.29 0 001.22-.72 2.53 2.53 0 00.66-1.05 3.86 3.86 0 00.2-1.28 3.33 3.33 0 00-.22-1.26 2.32 2.32 0 00-.71-1 3.23 3.23 0 00-1.23-.61 7 7 0 00-1.83-.21h-4.06v6.4zM1395 3069.55h1a2.33 2.33 0 00.94-.16 1.56 1.56 0 00.65-.5l6-7.58a2.2 2.2 0 01.79-.67 2.62 2.62 0 011-.18h3.48l-7.3 9a4.07 4.07 0 01-1.34 1.17 3.3 3.3 0 01.9.5 4.25 4.25 0 01.75.85l7.53 10.16h-3.55a2.25 2.25 0 01-1.07-.2 1.72 1.72 0 01-.6-.6l-6.13-8a1.61 1.61 0 00-.66-.57 2.79 2.79 0 00-1.08-.16H1395v9.54h-4v-21.69h4zM1425.51 3060.46v1.6a3.67 3.67 0 01-.15 1.16 5.82 5.82 0 01-.3.75l-8.22 16.92a2.49 2.49 0 01-.72.89 1.94 1.94 0 01-1.25.37h-2.68l8.38-16.58c.19-.34.38-.65.56-.94a8 8 0 01.63-.81h-10.38a.89.89 0 01-.86-.86v-2.5zM1296.69 3060.46a14.33 14.33 0 013.65.4 6.88 6.88 0 012.48 1.16 4.52 4.52 0 011.42 1.81 6.11 6.11 0 01.45 2.4 4.81 4.81 0 01-.23 1.47 4.41 4.41 0 01-.69 1.3 5.31 5.31 0 01-1.2 1.1 7.41 7.41 0 01-1.74.84q4.47 1 4.47 4.83a6.15 6.15 0 01-.52 2.55 5.59 5.59 0 01-1.53 2 7.25 7.25 0 01-2.48 1.33 10.81 10.81 0 01-3.36.48h-8.19v-21.69zm-3.43 3.12v6.27h3.21a5.42 5.42 0 003.13-.75 2.74 2.74 0 001.05-2.39 2.82 2.82 0 00-1-2.41 5 5 0 00-3-.72zm4.08 15.42a5.73 5.73 0 001.89-.27 3.29 3.29 0 001.22-.72 2.53 2.53 0 00.66-1.05 3.86 3.86 0 00.2-1.28 3.33 3.33 0 00-.22-1.26 2.32 2.32 0 00-.71-1 3.23 3.23 0 00-1.23-.61 7 7 0 00-1.83-.21h-4.06v6.4zM1313 3069.55h1a2.33 2.33 0 00.94-.16 1.56 1.56 0 00.65-.5l6-7.58a2.2 2.2 0 01.79-.67 2.62 2.62 0 011-.18h3.48l-7.3 9a4.07 4.07 0 01-1.34 1.17 3.3 3.3 0 01.9.5 4.25 4.25 0 01.75.85l7.53 10.16h-3.55a2.25 2.25 0 01-1.07-.2 1.72 1.72 0 01-.6-.6l-6.13-8a1.61 1.61 0 00-.66-.57 2.79 2.79 0 00-1.08-.16H1313v9.54h-4v-21.69h4zM1333.22 3068.33a12.19 12.19 0 011.38-.21 11.18 11.18 0 011.27-.07 8.27 8.27 0 013 .51 6.17 6.17 0 012.19 1.41 5.87 5.87 0 011.33 2.11 7.36 7.36 0 01.45 2.6 8 8 0 01-.6 3.15 7.12 7.12 0 01-1.69 2.43 7.59 7.59 0 01-2.56 1.57 9.07 9.07 0 01-3.22.56 8.58 8.58 0 01-1.93-.21 9.9 9.9 0 01-1.72-.56 10.16 10.16 0 01-1.49-.82 9.24 9.24 0 01-1.22-1l1.14-1.58a1.12 1.12 0 011-.51 1.44 1.44 0 01.76.24c.26.16.56.34.9.53a6.93 6.93 0 001.18.52 4.94 4.94 0 001.64.24 4.59 4.59 0 001.8-.33 3.53 3.53 0 001.3-.92 4 4 0 00.78-1.41 5.93 5.93 0 00.26-1.78 3.67 3.67 0 00-1-2.76 4.19 4.19 0 00-3-1 9.53 9.53 0 00-3.17.57l-2.31-.66 1.8-10.53h10.71v1.58a1.74 1.74 0 01-.49 1.29 2.33 2.33 0 01-1.68.5h-6zM1731.41 1226.91v25.39h-2.71a2.42 2.42 0 01-1-.2 2.56 2.56 0 01-.82-.69l-12.66-16.1c0 .41.06.81.08 1.2s0 .77 0 1.11v14.68h-4.64v-25.39H1712.99a1.2 1.2 0 01.43.13 1.42 1.42 0 01.37.25 2.7 2.7 0 01.38.42l12.75 16.17c-.05-.44-.09-.87-.11-1.29s0-.8 0-1.18v-14.52zM1759.52 1247.87a1.7 1.7 0 011.23.44 1.54 1.54 0 01.45 1.15v2.84h-17.61v-1.58a2.85 2.85 0 01.2-1 2.52 2.52 0 01.64-1l7.53-7.54c.64-.64 1.2-1.25 1.69-1.84a12.71 12.71 0 001.23-1.74 7.57 7.57 0 00.74-1.72 6.93 6.93 0 00.24-1.84 3.49 3.49 0 00-.88-2.58 3.29 3.29 0 00-2.46-.88 3.8 3.8 0 00-1.29.2 3.75 3.75 0 00-1 .55 3.89 3.89 0 00-.8.82 3.61 3.61 0 00-.49 1 2 2 0 01-.84 1.17 2.41 2.41 0 01-1.52.13l-2.55-.46a9.42 9.42 0 011-3.25 7.71 7.71 0 011.92-2.33 7.94 7.94 0 012.64-1.39 10.74 10.74 0 013.21-.46 9.77 9.77 0 013.28.53 7.56 7.56 0 012.53 1.49 6.4 6.4 0 011.62 2.3 7.39 7.39 0 01.58 3 8 8 0 01-.4 2.59 10.3 10.3 0 01-1.09 2.27 15.56 15.56 0 01-1.61 2.09c-.6.68-1.24 1.36-1.92 2.05l-5.39 5.51a16.15 16.15 0 011.77-.41 9.7 9.7 0 011.64-.15zM1777.35 1239.07a6.28 6.28 0 013.36 2.32 6.46 6.46 0 011 3.72 7.2 7.2 0 01-.65 3.08 6.75 6.75 0 01-1.82 2.35 8.45 8.45 0 01-2.82 1.51 12.76 12.76 0 01-7.28 0 8.5 8.5 0 01-2.81-1.51 6.63 6.63 0 01-1.82-2.35 7.2 7.2 0 01-.65-3.08 6.46 6.46 0 011-3.72 6.28 6.28 0 013.36-2.32 5.8 5.8 0 01-2.69-2.21 6.22 6.22 0 01-.88-3.37 6.33 6.33 0 01.59-2.72 6.45 6.45 0 011.68-2.17 7.8 7.8 0 012.56-1.45 10.45 10.45 0 016.51 0 7.8 7.8 0 012.56 1.45 6.3 6.3 0 011.67 2.17 6.7 6.7 0 01-.28 6.09 5.8 5.8 0 01-2.59 2.21zm-4.52 9.82a4.68 4.68 0 001.75-.3 3.56 3.56 0 001.23-.81 3.33 3.33 0 00.73-1.23 4.47 4.47 0 00.25-1.53 4.16 4.16 0 00-1-2.93 4.8 4.8 0 00-6 0 4.11 4.11 0 00-1 2.93 4.72 4.72 0 00.24 1.53 3.49 3.49 0 00.74 1.23 3.56 3.56 0 001.23.81 4.66 4.66 0 001.83.3zm0-18.69a3.77 3.77 0 00-1.53.28 3 3 0 00-1 .74 3 3 0 00-.6 1.08 4.16 4.16 0 00-.19 1.27 6.46 6.46 0 00.15 1.4 3.37 3.37 0 00.55 1.2 2.76 2.76 0 001 .83 4.39 4.39 0 003.29 0 2.84 2.84 0 001-.83 3.19 3.19 0 00.54-1.2 5.89 5.89 0 00.16-1.4 4.16 4.16 0 00-.19-1.27 3 3 0 00-.6-1.08 3 3 0 00-1.05-.74 3.78 3.78 0 00-1.53-.28zM1715 1273v7h9.13v4.13H1715v10.13h-5.29v-25.39h16.17v4.13zM1733.39 1268.21v26.09h-4.83v-26.09zM1745.55 1276a10 10 0 013.7.65 8.19 8.19 0 012.85 1.84 8.36 8.36 0 011.84 2.91 12.05 12.05 0 010 7.75 8 8 0 01-4.69 4.79 10.15 10.15 0 01-3.7.64 10.3 10.3 0 01-3.72-.64 8 8 0 01-4.7-4.79 11.71 11.71 0 010-7.75 7.92 7.92 0 014.7-4.75 10.09 10.09 0 013.72-.65zm0 15a3.5 3.5 0 003.07-1.43 9.55 9.55 0 000-8.47 4.07 4.07 0 00-6.18 0 9.47 9.47 0 000 8.47 3.53 3.53 0 003.11 1.37zM1765.76 1276a10 10 0 013.7.65 8 8 0 012.85 1.84 8.36 8.36 0 011.84 2.91 12.05 12.05 0 010 7.75 8.45 8.45 0 01-1.84 2.93 8.19 8.19 0 01-2.85 1.86 11 11 0 01-7.41 0 8.14 8.14 0 01-2.86-1.86 8.32 8.32 0 01-1.85-2.93 11.71 11.71 0 010-7.75 8.24 8.24 0 011.85-2.91 8 8 0 012.86-1.84 10 10 0 013.71-.65zm0 15a3.5 3.5 0 003.07-1.43 9.55 9.55 0 000-8.47 4.07 4.07 0 00-6.18 0 9.47 9.47 0 000 8.47 3.53 3.53 0 003.11 1.37zM1782.37 1279.23a8.15 8.15 0 012-2.43 4.06 4.06 0 012.62-.89 3.27 3.27 0 012 .57l-.32 3.57a.75.75 0 01-.27.49.9.9 0 01-.5.13 6.4 6.4 0 01-.8-.08 7 7 0 00-1-.08 3.32 3.32 0 00-1.18.19 3 3 0 00-.92.54 4.14 4.14 0 00-.73.86 9.61 9.61 0 00-.6 1.16v11h-4.83v-18h2.85a1.49 1.49 0 011 .26 1.68 1.68 0 01.4.91zM1798.54 1281.72h9.24v4h-9.24zM1836.13 1293.07a1.71 1.71 0 011.24.44 1.58 1.58 0 01.44 1.16v2.83h-17.6v-1.58a2.83 2.83 0 01.19-1 2.55 2.55 0 01.65-1l7.52-7.54c.64-.64 1.21-1.25 1.7-1.84a12.71 12.71 0 001.23-1.74 7.53 7.53 0 00.73-1.72 6.93 6.93 0 00.24-1.84 3.53 3.53 0 00-.87-2.58 3.32 3.32 0 00-2.47-.88 3.8 3.8 0 00-2.33.75 3.66 3.66 0 00-.8.82 3.61 3.61 0 00-.49 1 2 2 0 01-.85 1.17 2.38 2.38 0 01-1.51.13l-2.56-.45a9.84 9.84 0 011.05-3.26 7.67 7.67 0 014.57-3.72 10.67 10.67 0 013.2-.46 9.73 9.73 0 013.28.53 7.47 7.47 0 012.53 1.49 6.55 6.55 0 011.63 2.3 7.4 7.4 0 01.58 3 8.21 8.21 0 01-.4 2.58 10.34 10.34 0 01-1.1 2.27 15.47 15.47 0 01-1.6 2.09c-.61.68-1.25 1.36-1.92 2l-5.4 5.51a17.29 17.29 0 011.77-.41 9.82 9.82 0 011.65-.15z" transform="translate(0 .5)"/>
    <path class="cls-3" d="M336.33 1906.3h1232.31V1509.25l-149.12 2.75v109.78l-170.17 3.66v117.1H518.38L519 1653H336l.33 253.3z"/>
    <path class="cls-13" d="M712.33 1906.3h114.36v88.74H712.33zM826.69 1906.3h114.36v88.74H826.69z"/>
    <path class="cls-13" d="M941.05 1906.3h114.36v88.74H941.05z"/>
    <path class="cls-25" d="M1055.5 1906.3h117v89.2h-117z"/>
    <path stroke-width="4.35" fill="none" stroke="#fff" stroke-miterlimit="10" d="M1131.5 1624h117v118.5h-117z"/>
    <path class="cls-25" d="M1172.5 1906.3h117v89.2h-117zM1289.5 1906.3h117v89.2h-117z"/>
    <path stroke-width="3.78" fill="none" stroke="#fff" stroke-miterlimit="10" d="M1331.5 1624h88.5v118.35h-88.5z"/>
    <path stroke-width="3.62" fill="none" stroke="#fff" stroke-miterlimit="10" d="M1249.5 1624h81.5v118.35h-81.5z"/>
    <path class="cls-17" d="M1420.43 1510.63h147.75v89.2h-147.75z"/>
    <path class="cls-18" d="M1407.59 1906.76h80.51v88.74h-80.51z"/>
    <path class="cls-20" d="M744.35 1968.2v-11.15h12.75v-14.35h12.75v-12.75h12.75"/>
    <path class="cls-21" d="M760.29 1971.39l33.46-41.44"/>
    <path class="cls-13" d="M712.33 1653.3h114.36v88.74H712.33z"/>
    <path class="cls-20" d="M744.35 1715.2v-11.15h12.75v-14.35h12.75v-12.75h12.75"/>
    <path class="cls-21" d="M760.29 1718.39l33.46-41.44"/>
    <path class="cls-20" d="M1028.87 1968.2v-11.15h-12.75v-14.35h-12.75v-12.75h-12.74"/>
    <path class="cls-21" d="M1012.94 1971.39l-33.47-41.44"/>
    <path class="cls-2" d="M1445.43 1943.25v13.36h-2.19V1948v-1.12l-4 7.59a1 1 0 01-.88.54h-.36a.93.93 0 01-.88-.54l-4.08-7.61V1956.63h-2.19v-13.36h2.16a.71.71 0 01.22 0 .47.47 0 01.18.12 1 1 0 01.15.22l4 7.42c.1.19.2.4.29.61s.18.42.26.64q.13-.35.27-.66c.09-.21.19-.41.3-.61l3.94-7.4a.78.78 0 01.16-.22.36.36 0 01.18-.12.65.65 0 01.21 0h2.17zM1471.13 1943.05l-4.13 13.35h-2.25l-2.92-9.12a6.71 6.71 0 01-.22-.82c0 .16-.08.3-.11.44l-.12.38-2.95 9.12h-2.25l-4.14-13.35h2.08a1 1 0 01.54.15.76.76 0 01.29.41l2.27 8c0 .2.1.41.14.64s.1.48.15.73c0-.26.1-.5.16-.73s.12-.44.19-.64l2.62-8a1 1 0 01.29-.39.86.86 0 01.53-.17h.73a.86.86 0 01.53.15.88.88 0 01.3.41l2.62 8a10.38 10.38 0 01.35 1.32c.08-.48.17-.93.27-1.32l2.27-8a.72.72 0 01.28-.4.89.89 0 01.54-.16z" transform="translate(0 .5)"/>
    <circle class="cls-2" cx="1438.49" cy="1938.96" r="4.31"/>
    <circle class="cls-2" cx="1461.89" cy="1938.96" r="3.7"/>
    <path class="cls-2" d="M1434.18 1958.05h3.08v10.47h-3.08zM1439.72 1958.05h3.08v10.47h-3.08zM1457.58 1958.05h2.86v10.47h-2.86zM1462.73 1958.05h2.86v10.47h-2.86z"/>
    <path class="cls-2" d="M1313.91 1958a.8.8 0 01.58.26l1.59 1.72a8.76 8.76 0 01-3.24 2.51 11.22 11.22 0 01-4.63.87 10.91 10.91 0 01-4.34-.83 9.54 9.54 0 01-3.3-2.29 10.12 10.12 0 01-2.09-3.51 13.29 13.29 0 01-.73-4.46 12.38 12.38 0 01.78-4.47 10.36 10.36 0 012.2-3.51 9.89 9.89 0 013.38-2.28 11.16 11.16 0 014.35-.82 10.68 10.68 0 014.21.78 10 10 0 013.13 2l-1.35 1.87a1.18 1.18 0 01-.31.32.86.86 0 01-.51.13 1 1 0 01-.47-.12c-.16-.09-.34-.19-.53-.32l-.66-.41a5 5 0 00-.87-.41 7.12 7.12 0 00-1.14-.32 8.41 8.41 0 00-1.51-.13 6.75 6.75 0 00-2.66.52 5.87 5.87 0 00-2.08 1.5 7 7 0 00-1.35 2.4 10.06 10.06 0 00-.48 3.23 9.41 9.41 0 00.52 3.26 7.07 7.07 0 001.4 2.4 5.9 5.9 0 002.08 1.49 6.36 6.36 0 002.58.52 11.41 11.41 0 001.5-.09 6.51 6.51 0 001.23-.29 4.67 4.67 0 001.06-.5 6.15 6.15 0 001-.76 1.21 1.21 0 01.31-.21.73.73 0 01.35-.05zM1336.27 1952.22v8.78a11.64 11.64 0 01-3.51 1.78 14 14 0 01-4 .56 13.37 13.37 0 01-4.81-.83 10.73 10.73 0 01-3.67-2.29 10 10 0 01-2.35-3.51 11.76 11.76 0 01-.83-4.46 12.26 12.26 0 01.8-4.48 9.9 9.9 0 015.8-5.79 12.84 12.84 0 014.68-.81 13.7 13.7 0 012.47.21 11.82 11.82 0 012.13.58 8.79 8.79 0 011.79.89 10.72 10.72 0 011.49 1.15l-1.16 1.83a1.09 1.09 0 01-.7.54 1.3 1.3 0 01-1-.22l-1-.57a6.2 6.2 0 00-1.1-.5 9 9 0 00-1.36-.34 10.09 10.09 0 00-1.75-.14 7.46 7.46 0 00-2.9.54 6.14 6.14 0 00-2.22 1.55 7 7 0 00-1.41 2.41 9.47 9.47 0 00-.49 3.15 9.82 9.82 0 00.53 3.33 7.11 7.11 0 001.5 2.47 6.44 6.44 0 002.33 1.55 8.45 8.45 0 003.05.53 8.67 8.67 0 002.14-.25 10.64 10.64 0 001.85-.7v-3.93h-2.73a.85.85 0 01-.61-.21.77.77 0 01-.22-.54v-2.28zM1363.69 1941.41v21.69h-3.55v-14c0-.56 0-1.17.09-1.82l-6.56 12.32a1.5 1.5 0 01-1.42.88h-.57a1.52 1.52 0 01-1.43-.88l-6.62-12.36c0 .33 0 .65.07 1s0 .61 0 .88v14h-3.56v-21.69h3.51a1.35 1.35 0 01.36.08.73.73 0 01.28.19 1.51 1.51 0 01.25.36l6.49 12q.26.48.48 1l.42 1.05c.14-.37.29-.73.44-1.07s.31-.68.48-1l6.41-12a1.27 1.27 0 01.25-.36.85.85 0 01.29-.19 1.28 1.28 0 01.35-.08h3.51zM1383.67 1944.72h-6.54v18.38h-4v-18.38h-6.54v-3.31h17.11zM1399.23 1959.77v3.33h-12.71v-21.69h4v18.36zM1170.8 1687.13v2.77h-10.59v-18.07h3.37v15.3zM1188.69 1689.9h-2.6a1.08 1.08 0 01-.71-.22 1.3 1.3 0 01-.42-.54l-1.35-3.69h-7.48l-1.35 3.69a1.25 1.25 0 01-.39.52 1.08 1.08 0 01-.72.24h-2.62l7.11-18.07h3.43zm-5.94-6.82l-2.2-6c-.11-.26-.22-.58-.34-1s-.23-.76-.35-1.18c-.11.42-.22.82-.33 1.19s-.23.69-.34 1l-2.19 6zM1196.79 1671.83a12.24 12.24 0 013 .33 5.72 5.72 0 012.06 1 3.7 3.7 0 011.19 1.51 5.09 5.09 0 01.37 2 3.84 3.84 0 01-.19 1.22 3.43 3.43 0 01-.58 1.08 4.23 4.23 0 01-1 .92 5.68 5.68 0 01-1.44.7q3.72.84 3.72 4a5 5 0 01-.44 2.12 4.62 4.62 0 01-1.27 1.68 6.06 6.06 0 01-2.06 1.11 8.93 8.93 0 01-2.8.4h-6.83v-18.07zm-2.87 2.6v5.22h2.68a4.57 4.57 0 002.61-.62 2.29 2.29 0 00.88-2 2.36 2.36 0 00-.8-2 4.2 4.2 0 00-2.5-.6zm3.41 12.85a4.77 4.77 0 001.57-.23 2.73 2.73 0 001-.6 2.22 2.22 0 00.55-.87 3.43 3.43 0 00.17-1.07 2.69 2.69 0 00-.19-1 1.86 1.86 0 00-.59-.8 2.76 2.76 0 00-1-.51 5.64 5.64 0 00-1.52-.17h-3.39v5.3zM1224 1687.59v2.31h-10v-2.31h3.67v-10.54-1.29l-2.6 2.18a1.14 1.14 0 01-.44.22.94.94 0 01-.41 0 1 1 0 01-.35-.13.72.72 0 01-.22-.2l-1-1.34 5.52-4.69h2.53v15.79zM1090.32 1958.57v3.33h-12.7v-21.69h4v18.36zM1111.79 1961.9h-3.12a1.38 1.38 0 01-.86-.26 1.56 1.56 0 01-.49-.65l-1.62-4.43h-9l-1.62 4.43a1.42 1.42 0 01-.46.63 1.33 1.33 0 01-.86.28h-3.15l8.54-21.69h4.11zm-7.13-8.19l-2.64-7.21c-.13-.32-.27-.7-.4-1.14s-.29-.92-.42-1.43c-.13.51-.27 1-.41 1.43s-.28.84-.41 1.17l-2.62 7.18zM1121.5 1940.21a14.29 14.29 0 013.65.41 6.88 6.88 0 012.48 1.15 4.5 4.5 0 011.42 1.81 6.2 6.2 0 01.45 2.41 4.74 4.74 0 01-.23 1.46 4.29 4.29 0 01-.69 1.3 5.35 5.35 0 01-1.2 1.11 7.41 7.41 0 01-1.74.84q4.47 1 4.47 4.83a6.19 6.19 0 01-.52 2.55 5.56 5.56 0 01-1.53 2 7.25 7.25 0 01-2.48 1.33 10.81 10.81 0 01-3.36.48H1114v-21.69zm-3.43 3.12v6.27h3.21a5.42 5.42 0 003.13-.75 2.72 2.72 0 001-2.38 2.84 2.84 0 00-1-2.42 5 5 0 00-3-.72zm4.08 15.42a5.73 5.73 0 001.89-.27 3.21 3.21 0 001.22-.72 2.53 2.53 0 00.66-1 3.8 3.8 0 00.2-1.27 3.38 3.38 0 00-.22-1.27 2.32 2.32 0 00-.71-1 3.23 3.23 0 00-1.23-.61 7 7 0 00-1.83-.21h-4.06v6.36zM1155.3 1953.73v2.14a.77.77 0 01-.2.52.71.71 0 01-.55.22h-2v5.29h-3.23v-5.29h-9.15a1 1 0 01-.66-.24 1 1 0 01-.36-.58l-.39-1.87 10.28-13.72h3.51v13.53zm-6 0v-7.1a20.33 20.33 0 01.14-2.22l-6.74 9.32zM1205.32 1958.57v3.33h-12.7v-21.69h4v18.36zM1226.79 1961.9h-3.12a1.38 1.38 0 01-.86-.26 1.56 1.56 0 01-.49-.65l-1.62-4.43h-9l-1.62 4.43a1.42 1.42 0 01-.46.63 1.33 1.33 0 01-.86.28h-3.15l8.54-21.69h4.11zm-7.13-8.19l-2.64-7.21c-.13-.32-.27-.7-.4-1.14s-.29-.92-.42-1.43c-.13.51-.27 1-.41 1.43s-.28.84-.41 1.17l-2.62 7.18zM1236.5 1940.21a14.29 14.29 0 013.65.41 6.88 6.88 0 012.48 1.15 4.5 4.5 0 011.42 1.81 6.2 6.2 0 01.45 2.41 4.74 4.74 0 01-.23 1.46 4.29 4.29 0 01-.69 1.3 5.35 5.35 0 01-1.2 1.11 7.41 7.41 0 01-1.74.84q4.47 1 4.47 4.83a6.19 6.19 0 01-.52 2.55 5.56 5.56 0 01-1.53 2 7.25 7.25 0 01-2.48 1.33 10.81 10.81 0 01-3.36.48H1229v-21.69zm-3.43 3.12v6.27h3.21a5.42 5.42 0 003.13-.75 2.72 2.72 0 001-2.38 2.84 2.84 0 00-1-2.42 5 5 0 00-3-.72zm4.08 15.42a5.73 5.73 0 001.89-.27 3.21 3.21 0 001.22-.72 2.53 2.53 0 00.66-1 3.8 3.8 0 00.2-1.27 3.38 3.38 0 00-.22-1.27 2.32 2.32 0 00-.71-1 3.23 3.23 0 00-1.23-.61 7 7 0 00-1.83-.21h-4.06v6.36zM1259.75 1948.08c.48-.09.94-.17 1.38-.21a11.35 11.35 0 011.28-.07 8.22 8.22 0 013 .51 6.17 6.17 0 012.19 1.41 5.89 5.89 0 011.34 2.11 7.36 7.36 0 01.45 2.6 7.87 7.87 0 01-.61 3.15 7.12 7.12 0 01-1.69 2.44 7.52 7.52 0 01-2.55 1.56 8.9 8.9 0 01-3.22.56 8.67 8.67 0 01-1.94-.21 9.79 9.79 0 01-1.71-.56 10.56 10.56 0 01-1.49-.81 10.2 10.2 0 01-1.22-1l1.14-1.57a1.1 1.1 0 01.94-.51 1.47 1.47 0 01.77.24l.89.52a6.63 6.63 0 001.19.52 4.68 4.68 0 001.64.25 4.59 4.59 0 001.8-.33 3.52 3.52 0 001.3-.93 4 4 0 00.78-1.41 5.87 5.87 0 00.26-1.77 3.66 3.66 0 00-1-2.77 4.17 4.17 0 00-3-1 9.48 9.48 0 00-3.16.57l-2.31-.66 1.8-10.53h10.71v1.58a1.75 1.75 0 01-.5 1.29 2.33 2.33 0 01-1.68.49h-6zM1269.8 1687.13v2.77h-10.59v-18.07h3.37v15.3zM1287.69 1689.9h-2.6a1.08 1.08 0 01-.71-.22 1.3 1.3 0 01-.42-.54l-1.35-3.69h-7.48l-1.35 3.69a1.25 1.25 0 01-.39.52 1.08 1.08 0 01-.72.24h-2.62l7.11-18.07h3.43zm-5.94-6.82l-2.2-6c-.11-.26-.22-.58-.34-1s-.23-.76-.35-1.18c-.11.42-.22.82-.33 1.19s-.23.69-.34 1l-2.19 6zM1295.79 1671.83a12.24 12.24 0 013 .33 5.72 5.72 0 012.06 1 3.7 3.7 0 011.19 1.51 5.09 5.09 0 01.37 2 3.84 3.84 0 01-.19 1.22 3.43 3.43 0 01-.58 1.08 4.23 4.23 0 01-1 .92 5.68 5.68 0 01-1.44.7q3.72.84 3.72 4a5 5 0 01-.44 2.12 4.62 4.62 0 01-1.27 1.68 6.06 6.06 0 01-2.06 1.11 8.93 8.93 0 01-2.8.4h-6.83v-18.07zm-2.87 2.6v5.22h2.68a4.57 4.57 0 002.61-.62 2.29 2.29 0 00.88-2 2.36 2.36 0 00-.8-2 4.2 4.2 0 00-2.5-.6zm3.41 12.85a4.77 4.77 0 001.57-.23 2.73 2.73 0 001-.6 2.22 2.22 0 00.55-.87 3.43 3.43 0 00.17-1.07 2.69 2.69 0 00-.19-1 1.86 1.86 0 00-.59-.8 2.76 2.76 0 00-1-.51 5.64 5.64 0 00-1.52-.17h-3.39v5.3zM1322.35 1687a1.08 1.08 0 01.79.28 1 1 0 01.3.74v1.85H1311v-1a1.8 1.8 0 01.13-.66 1.71 1.71 0 01.42-.62l5.48-5.5c.46-.47.87-.91 1.24-1.34a8.19 8.19 0 00.9-1.26 6.15 6.15 0 00.56-1.27 4.64 4.64 0 00.19-1.35 3.12 3.12 0 00-.19-1.15 2.23 2.23 0 00-.53-.83 2.37 2.37 0 00-.82-.51 3.63 3.63 0 00-2.1 0 2.86 2.86 0 00-.83.44 3 3 0 00-.62.66 2.9 2.9 0 00-.37.82 1.37 1.37 0 01-.55.76 1.5 1.5 0 01-1 .09l-1.62-.29a6.86 6.86 0 01.72-2.28 5.57 5.57 0 011.35-1.64 5.66 5.66 0 011.85-1 7.35 7.35 0 012.24-.33 7 7 0 012.29.36 5.2 5.2 0 011.77 1 4.56 4.56 0 011.15 1.62 5.21 5.21 0 01.42 2.12 5.56 5.56 0 01-.3 1.85 8 8 0 01-.78 1.62 10.77 10.77 0 01-1.16 1.5c-.44.48-.9 1-1.39 1.48l-4.07 4.16a8.23 8.23 0 011.17-.27 7.09 7.09 0 011.1-.09zM1353.8 1687.13v2.77h-10.59v-18.07h3.37v15.3zM1371.69 1689.9h-2.6a1.08 1.08 0 01-.71-.22 1.3 1.3 0 01-.42-.54l-1.35-3.69h-7.48l-1.35 3.69a1.25 1.25 0 01-.39.52 1.08 1.08 0 01-.72.24h-2.62l7.11-18.07h3.43zm-5.94-6.82l-2.2-6c-.11-.26-.22-.58-.34-1s-.23-.76-.35-1.18c-.11.42-.22.82-.33 1.19s-.23.69-.34 1l-2.19 6zM1379.79 1671.83a12.24 12.24 0 013 .33 5.72 5.72 0 012.06 1 3.7 3.7 0 011.19 1.51 5.09 5.09 0 01.37 2 3.84 3.84 0 01-.19 1.22 3.43 3.43 0 01-.58 1.08 4.23 4.23 0 01-1 .92 5.68 5.68 0 01-1.44.7q3.72.84 3.72 4a5 5 0 01-.44 2.12 4.62 4.62 0 01-1.27 1.68 6.06 6.06 0 01-2.06 1.11 8.93 8.93 0 01-2.8.4h-6.83v-18.07zm-2.87 2.6v5.22h2.68a4.57 4.57 0 002.61-.62 2.29 2.29 0 00.88-2 2.36 2.36 0 00-.8-2 4.2 4.2 0 00-2.5-.6zm3.41 12.85a4.77 4.77 0 001.57-.23 2.73 2.73 0 001-.6 2.22 2.22 0 00.55-.87 3.43 3.43 0 00.17-1.07 2.69 2.69 0 00-.19-1 1.86 1.86 0 00-.59-.8 2.76 2.76 0 00-1-.51 5.64 5.64 0 00-1.52-.17h-3.39v5.3zM1395.44 1676.86a6.64 6.64 0 01.72-2.28 5.37 5.37 0 013.2-2.62 7.35 7.35 0 012.24-.33 6.74 6.74 0 012.26.35 5.13 5.13 0 011.71 1 4.31 4.31 0 011.1 1.48 4.52 4.52 0 01.38 1.84 5.79 5.79 0 01-.19 1.52 3.68 3.68 0 01-.56 1.14 3.25 3.25 0 01-.9.83 5.86 5.86 0 01-1.21.56 4.69 4.69 0 012.42 1.56 4.19 4.19 0 01.8 2.64 5.38 5.38 0 01-.5 2.39 5 5 0 01-1.35 1.74 5.77 5.77 0 01-2 1.07 7.64 7.64 0 01-2.37.36 8 8 0 01-2.37-.31 5.11 5.11 0 01-1.76-.93 5.36 5.36 0 01-1.28-1.5 10 10 0 01-.9-2l1.36-.56a1.66 1.66 0 011-.12 1 1 0 01.68.51c.15.29.32.58.5.86a3.31 3.31 0 00.64.76 2.87 2.87 0 00.88.53 3.16 3.16 0 001.21.21 3.25 3.25 0 001.37-.26 3 3 0 001-.66 2.77 2.77 0 00.59-.92 2.83 2.83 0 00.19-1 4.79 4.79 0 00-.13-1.18 1.81 1.81 0 00-.58-.91 3.1 3.1 0 00-1.25-.59 9.23 9.23 0 00-2.2-.21v-2.2a8.1 8.1 0 001.89-.21 3.07 3.07 0 001.19-.56 1.82 1.82 0 00.62-.85 3.25 3.25 0 00.18-1.1 2.51 2.51 0 00-.72-1.94 2.66 2.66 0 00-1.9-.66 3.29 3.29 0 00-1 .15 3 3 0 00-.83.44 2.77 2.77 0 00-.62.66 2.65 2.65 0 00-.37.82 1.33 1.33 0 01-.56.76 1.48 1.48 0 01-1 .09zM1451.45 1547.13v2.77h-10.59v-18.07h3.37v15.3zM1455.09 1543.88a5.87 5.87 0 00.35 1.7 3.41 3.41 0 00.72 1.19 2.84 2.84 0 001.07.7 4 4 0 001.37.23 4.43 4.43 0 001.29-.17 6.21 6.21 0 00.95-.39c.28-.14.51-.27.72-.39a1.13 1.13 0 01.59-.17.65.65 0 01.58.28l.88 1.13a5 5 0 01-1.15 1 6.3 6.3 0 01-1.33.65 6.93 6.93 0 01-1.41.35 11.23 11.23 0 01-1.39.1 6.76 6.76 0 01-2.49-.45 5.48 5.48 0 01-2-1.31 6.14 6.14 0 01-1.34-2.15 8.4 8.4 0 01-.49-3 7.2 7.2 0 01.43-2.47 5.86 5.86 0 011.22-2 5.69 5.69 0 011.93-1.35 6.33 6.33 0 012.59-.5 6.22 6.22 0 012.23.38 5 5 0 011.77 1.13 5.33 5.33 0 011.15 1.83 6.77 6.77 0 01.42 2.47 2 2 0 01-.15.94.62.62 0 01-.57.25zm5.91-1.88a3.81 3.81 0 00-.17-1.13 2.8 2.8 0 00-.51-.93 2.21 2.21 0 00-.86-.63 3 3 0 00-1.2-.23 2.86 2.86 0 00-2.11.76 3.75 3.75 0 00-1 2.16zM1475.25 1539.79a1.37 1.37 0 01-.27.27.59.59 0 01-.38.1.8.8 0 01-.46-.14l-.54-.33a3.92 3.92 0 00-.74-.32 3.35 3.35 0 00-1.07-.14 3.23 3.23 0 00-1.43.29 2.84 2.84 0 00-1 .84 3.78 3.78 0 00-.6 1.33 7.82 7.82 0 000 3.6 3.7 3.7 0 00.63 1.34 2.75 2.75 0 001 .83 3.12 3.12 0 001.32.28 3.33 3.33 0 001.2-.18 4.23 4.23 0 00.77-.4l.54-.4a.82.82 0 01.52-.18.61.61 0 01.56.28l.89 1.13a5.46 5.46 0 01-1.11 1 6 6 0 01-1.25.65 6.13 6.13 0 01-1.32.35 10.5 10.5 0 01-1.36.1 5.64 5.64 0 01-2.24-.45 5.09 5.09 0 01-1.83-1.29 6.24 6.24 0 01-1.25-2.08 8.89 8.89 0 010-5.43 5.8 5.8 0 011.2-2.08 5.31 5.31 0 012-1.38 6.56 6.56 0 012.67-.5 6.33 6.33 0 012.52.46 6.19 6.19 0 011.94 1.32zM1482.39 1550.1a3.37 3.37 0 01-2.57-.94 3.63 3.63 0 01-.89-2.61v-7.16h-1.32a.59.59 0 01-.6-.65v-1.23l2.07-.33.65-3.5a.69.69 0 01.23-.39.73.73 0 01.45-.14h1.6v4h3.43v2.2H1482v6.95a1.38 1.38 0 00.3.94 1 1 0 00.8.33 1.35 1.35 0 00.48-.07 1.84 1.84 0 00.34-.14l.26-.14a.38.38 0 01.22-.07.35.35 0 01.23.07.93.93 0 01.19.2l.92 1.5a4.59 4.59 0 01-1.55.85 5.81 5.81 0 01-1.8.33zM1498.46 1537.08v12.82h-1.88a.74.74 0 01-.78-.56l-.21-1a6.94 6.94 0 01-1.74 1.3 4.78 4.78 0 01-2.24.49 4.46 4.46 0 01-1.85-.36 3.68 3.68 0 01-1.36-1 4.44 4.44 0 01-.83-1.55 6.4 6.4 0 01-.28-2v-8.15h3.09v8.15a2.72 2.72 0 00.54 1.81 2 2 0 001.63.65 3.25 3.25 0 001.5-.36 5.24 5.24 0 001.33-1v-9.27zM1504.42 1539.3a5.68 5.68 0 011.43-1.81 3.08 3.08 0 012-.65 2.34 2.34 0 011.42.39l-.2 2.31a.61.61 0 01-.18.32.51.51 0 01-.32.09 3.71 3.71 0 01-.55-.06 4.56 4.56 0 00-.72-.06 2.55 2.55 0 00-.91.15 2.19 2.19 0 00-.72.43 2.72 2.72 0 00-.56.68 5.51 5.51 0 00-.46.91v7.9h-3.09v-12.82h1.82a1 1 0 01.66.16 1.05 1.05 0 01.25.61zM1512.85 1543.88a6.22 6.22 0 00.35 1.7 3.57 3.57 0 00.72 1.19 2.92 2.92 0 001.07.7 4 4 0 001.37.23 4.55 4.55 0 001.3-.17 6.66 6.66 0 00.95-.39l.71-.39a1.13 1.13 0 01.59-.17.65.65 0 01.58.28l.89 1.13a5.4 5.4 0 01-1.15 1 6.37 6.37 0 01-1.34.65 6.93 6.93 0 01-1.41.35 11.23 11.23 0 01-1.39.1 6.8 6.8 0 01-2.49-.45 5.48 5.48 0 01-2-1.31 6.14 6.14 0 01-1.34-2.15 8.41 8.41 0 01-.48-3 7.2 7.2 0 01.42-2.47 5.86 5.86 0 011.22-2 5.63 5.63 0 011.94-1.35 6.25 6.25 0 012.58-.5 6.18 6.18 0 012.23.38 4.93 4.93 0 011.77 1.13 5.33 5.33 0 011.15 1.83 6.77 6.77 0 01.42 2.47 2 2 0 01-.15.94.62.62 0 01-.57.25zm5.89-1.87a3.81 3.81 0 00-.17-1.13 2.64 2.64 0 00-.51-.93 2.25 2.25 0 00-.85-.63 3 3 0 00-1.21-.23 2.87 2.87 0 00-2.11.76 3.75 3.75 0 00-1 2.16zM1526.74 1539.3a5.53 5.53 0 011.42-1.81 3.08 3.08 0 011.95-.65 2.4 2.4 0 011.43.39l-.2 2.31a.61.61 0 01-.18.32.53.53 0 01-.32.09 3.82 3.82 0 01-.56-.06 4.37 4.37 0 00-.72-.06 2.59 2.59 0 00-.91.15 2.19 2.19 0 00-.72.43 2.72 2.72 0 00-.56.68 6.42 6.42 0 00-.46.91v7.9h-3.08v-12.82h1.81a1 1 0 01.66.16 1.05 1.05 0 01.25.61zM1535.25 1530.61a6.32 6.32 0 01.81 2.06 5.77 5.77 0 010 2.11 6 6 0 01-.73 2 6.22 6.22 0 01-1.5 1.72l-1-.59a.52.52 0 01-.18-.18.52.52 0 010-.21.54.54 0 010-.21.66.66 0 01.12-.17 4.12 4.12 0 00.5-.83 4 4 0 00.33-1.15 4.8 4.8 0 000-1.36 4 4 0 00-.57-1.45.73.73 0 01-.12-.63.61.61 0 01.4-.38zM1545.91 1539.58a.89.89 0 01-.26.28.72.72 0 01-.35.08 1 1 0 01-.48-.13l-.6-.28a5.53 5.53 0 00-.76-.28 3.86 3.86 0 00-1-.12 2.37 2.37 0 00-1.44.38 1.22 1.22 0 00-.51 1 1 1 0 00.26.69 2.33 2.33 0 00.72.49 6.75 6.75 0 001 .38l1.15.37c.38.14.77.29 1.14.46a4.06 4.06 0 011 .65 3.15 3.15 0 01.71.94 3 3 0 01.27 1.33 4.29 4.29 0 01-.33 1.7 3.64 3.64 0 01-1 1.35 4.63 4.63 0 01-1.61.89 7.05 7.05 0 01-2.21.32 6.88 6.88 0 01-1.29-.12 7.68 7.68 0 01-1.21-.33 6.7 6.7 0 01-1.08-.5 5.38 5.38 0 01-.87-.62l.72-1.18a1 1 0 01.32-.32.9.9 0 01.48-.12 1 1 0 01.54.17l.59.35a6.15 6.15 0 00.8.35 3.7 3.7 0 001.15.16 3.25 3.25 0 001-.13 2.11 2.11 0 00.65-.35 1.25 1.25 0 00.37-.49 1.47 1.47 0 00.12-.58 1 1 0 00-.27-.74 2.3 2.3 0 00-.71-.5 6.9 6.9 0 00-1-.38c-.38-.11-.77-.24-1.16-.37a9.85 9.85 0 01-1.17-.47 3.9 3.9 0 01-1-.68 3 3 0 01-.71-1 3.54 3.54 0 01-.27-1.45 3.61 3.61 0 011.23-2.75 4.76 4.76 0 011.51-.85 7.1 7.1 0 014.51.12 5.51 5.51 0 011.81 1.15zM1463 1565.11a1.16 1.16 0 01-.32.38.74.74 0 01-.42.12 1 1 0 01-.57-.19l-.73-.43a6.26 6.26 0 00-1-.43 4.11 4.11 0 00-1.34-.2 4.15 4.15 0 00-1.23.17 2.64 2.64 0 00-.88.47 2 2 0 00-.53.72 2.47 2.47 0 00-.17.92 1.63 1.63 0 00.35 1.06 3.11 3.11 0 001 .73 8.91 8.91 0 001.34.53l1.53.51a16 16 0 011.54.62 5.43 5.43 0 011.34.9 4.2 4.2 0 01.94 1.34 4.55 4.55 0 01.36 1.91 6.21 6.21 0 01-.42 2.29 5.21 5.21 0 01-1.23 1.86 5.63 5.63 0 01-2 1.25 7.19 7.19 0 01-2.67.46 8.83 8.83 0 01-1.7-.17 8.46 8.46 0 01-1.6-.48 8.62 8.62 0 01-1.45-.75 7.26 7.26 0 01-1.2-1l1-1.62a1 1 0 01.33-.29.79.79 0 01.42-.12 1.24 1.24 0 01.68.26c.24.17.52.36.86.57a7.1 7.1 0 001.17.56 4.47 4.47 0 001.6.26 3.34 3.34 0 002.23-.68 2.48 2.48 0 00.79-2 1.81 1.81 0 00-.36-1.16 3 3 0 00-.94-.76 7.48 7.48 0 00-1.34-.51c-.5-.15-1-.3-1.53-.47a11.41 11.41 0 01-1.52-.6 4.74 4.74 0 01-1.34-.91 4 4 0 01-.94-1.41 5.28 5.28 0 01-.36-2.08 4.92 4.92 0 01.39-1.92 5 5 0 011.15-1.66 5.42 5.42 0 011.85-1.17 6.79 6.79 0 012.52-.43 8.27 8.27 0 013 .5 6.58 6.58 0 012.3 1.4zM1469 1573.88a6.22 6.22 0 00.35 1.7 3.58 3.58 0 00.73 1.19 2.77 2.77 0 001.07.7 3.92 3.92 0 001.36.23 4.5 4.5 0 001.3-.17 6.66 6.66 0 001-.39c.27-.14.51-.27.71-.39a1.17 1.17 0 01.6-.17.64.64 0 01.57.28l.89 1.13a5.17 5.17 0 01-1.15 1 6.54 6.54 0 01-1.33.65 7.18 7.18 0 01-1.42.35 11.23 11.23 0 01-1.39.1 6.8 6.8 0 01-2.49-.45 5.56 5.56 0 01-2-1.31 6.12 6.12 0 01-1.33-2.15 8.18 8.18 0 01-.49-3 7.2 7.2 0 01.42-2.47 6 6 0 011.22-2 5.73 5.73 0 011.94-1.35 6.85 6.85 0 014.82-.12 5 5 0 011.76 1.13 5.35 5.35 0 011.16 1.83 6.77 6.77 0 01.42 2.47 1.85 1.85 0 01-.16.94.61.61 0 01-.57.25zm5.89-1.87a3.81 3.81 0 00-.17-1.13 2.64 2.64 0 00-.51-.93 2.25 2.25 0 00-.85-.63 3 3 0 00-1.21-.23 2.84 2.84 0 00-2.1.76 3.69 3.69 0 00-1 2.16zM1489.13 1569.79a2.27 2.27 0 01-.27.27.63.63 0 01-.39.1.82.82 0 01-.46-.14l-.54-.33a3.42 3.42 0 00-.74-.32 3.31 3.31 0 00-1.07-.14 3.19 3.19 0 00-1.42.29 2.68 2.68 0 00-1 .84 4 4 0 00-.61 1.33 7.31 7.31 0 00-.2 1.77 7.23 7.23 0 00.22 1.83 4.06 4.06 0 00.63 1.34 2.84 2.84 0 001 .83 3.16 3.16 0 001.33.28 3.27 3.27 0 001.19-.18 4.23 4.23 0 00.77-.4l.54-.4a.84.84 0 01.52-.18.61.61 0 01.56.28l.89 1.13a5.46 5.46 0 01-1.11 1 6.14 6.14 0 01-1.24.65 6.21 6.21 0 01-1.33.35 10.37 10.37 0 01-1.36.1 5.59 5.59 0 01-2.23-.45 5.12 5.12 0 01-1.84-1.29 6.06 6.06 0 01-1.24-2.08 8.7 8.7 0 010-5.43 5.78 5.78 0 011.19-2.08 5.4 5.4 0 012-1.38 6.59 6.59 0 012.67-.5 6 6 0 014.47 1.78zM1504.93 1579.9h-3.09v-10.51h-5.95v6.95a1.43 1.43 0 00.29.94 1 1 0 00.81.33 1.35 1.35 0 00.48-.07 2.18 2.18 0 00.34-.14l.25-.14a.41.41 0 01.23-.07.32.32 0 01.22.07.93.93 0 01.19.2l.93 1.5a4.59 4.59 0 01-1.55.85 5.87 5.87 0 01-1.82.29 3.38 3.38 0 01-2.57-.94 3.67 3.67 0 01-.89-2.61v-7.16h-1.31a.65.65 0 01-.43-.16.66.66 0 01-.17-.49v-1.23l2.06-.35.65-3.48a.65.65 0 01.24-.39.69.69 0 01.45-.14h1.6v4h9zm.53-16.61a1.74 1.74 0 01-.16.75 2 2 0 01-.43.62 1.87 1.87 0 01-.64.42 1.85 1.85 0 01-.78.16 1.71 1.71 0 01-.75-.16 1.85 1.85 0 01-.61-.42 1.79 1.79 0 01-.42-.62 1.74 1.74 0 01-.16-.75 1.8 1.8 0 01.16-.77 1.93 1.93 0 01.42-.63 1.93 1.93 0 011.36-.58 2 2 0 01.78.16 1.87 1.87 0 01.64.42 2.13 2.13 0 01.43.63 1.8 1.8 0 01.16.77zM1513.75 1566.88a6.94 6.94 0 012.59.46 5.61 5.61 0 012 1.31 5.72 5.72 0 011.29 2.08 8.57 8.57 0 010 5.48 5.77 5.77 0 01-1.29 2.09 5.53 5.53 0 01-2 1.33 7.58 7.58 0 01-5.2 0 5.56 5.56 0 01-2-1.33 6.05 6.05 0 01-1.29-2.09 8.57 8.57 0 010-5.48 6 6 0 011.29-2.08 5.65 5.65 0 012-1.31 7 7 0 012.61-.46zm0 10.83a2.72 2.72 0 002.37-1.07 6.85 6.85 0 000-6.31 2.69 2.69 0 00-2.37-1.09 2.76 2.76 0 00-2.41 1.09 5.4 5.4 0 00-.78 3.16 5.33 5.33 0 00.78 3.14 2.78 2.78 0 002.41 1.08zM1525.32 1568.65a9.18 9.18 0 01.82-.72 5.14 5.14 0 01.92-.56 4.33 4.33 0 011-.36 5 5 0 011.2-.13 4.54 4.54 0 011.86.35 3.79 3.79 0 011.36 1 4.45 4.45 0 01.82 1.54 6.47 6.47 0 01.28 2v8.16h-3.09v-8.16a2.76 2.76 0 00-.53-1.82 2 2 0 00-1.64-.64 3.25 3.25 0 00-1.5.36 5.29 5.29 0 00-1.33 1v9.27h-3.08v-12.82h1.88a.75.75 0 01.79.56zM875.78 1956.17v3.33h-12.7v-21.69h4v18.36zM882.42 1939.63a2.11 2.11 0 01-.19.9 2.37 2.37 0 01-.52.73 2.54 2.54 0 01-.76.51 2.41 2.41 0 01-.93.18 2.26 2.26 0 01-.9-.18 2.42 2.42 0 01-1.25-1.24 2.27 2.27 0 01-.19-.9 2.41 2.41 0 01.19-.93 2.46 2.46 0 01.5-.75 2.49 2.49 0 01.75-.51 2.26 2.26 0 01.9-.18 2.41 2.41 0 01.93.18 2.54 2.54 0 01.76.51 2.34 2.34 0 01.52.75 2.24 2.24 0 01.19.93zm-.51 4.48v15.39h-3.72v-15.39zM900.44 1946.89v8.34a1.62 1.62 0 00.36 1.12 1.22 1.22 0 001 .41 1.93 1.93 0 00.58-.08 3.89 3.89 0 00.4-.18 2.88 2.88 0 00.31-.17.47.47 0 01.27-.08.4.4 0 01.27.08 1.44 1.44 0 01.22.25l1.11 1.8a5.56 5.56 0 01-1.85 1 6.84 6.84 0 01-2.17.34 4.09 4.09 0 01-3.09-1.13 4.36 4.36 0 01-1.08-3.13v-8.59h-6.25v12.61h-3.71v-12.6l-1.33-.21a1.67 1.67 0 01-.7-.3.8.8 0 01-.26-.63v-1.51h2.29v-1.14a6.77 6.77 0 01.4-2.37 5.09 5.09 0 011.14-1.79 5 5 0 011.81-1.12 6.94 6.94 0 012.4-.39 6.63 6.63 0 012 .28l-.08 1.86a.57.57 0 01-.39.53 1.24 1.24 0 01-.4.09 3.64 3.64 0 01-.48 0 4.29 4.29 0 00-1.18.14 2.11 2.11 0 00-.88.49 2.22 2.22 0 00-.54.94 4.5 4.5 0 00-.19 1.43v1h6.54l.79-4.22a.82.82 0 01.29-.46.85.85 0 01.54-.17h1.92v4.85h4.11v2.64z" transform="translate(0 .5)"/>
  </g>
</svg>