<svg id="Flat" height="512" viewBox="0 0 512 512" width="512" xmlns="http://www.w3.org/2000/svg"><path d="m360 343.93v144.07h-304v-144.07a32 32 0 0 1 32-32h240a32 32 0 0 1 32 32z" fill="#7e8589"/><path d="m312 311.93v.07c0 61.86-46.559 112-104 112s-104-50.14-104-112v-.07z" fill="#6a7073"/><path d="m232 408-7.28 14.55a97.124 97.124 0 0 1 -33.44 0l-7.28-14.55 8-48h32z" fill="#dadcde"/><path d="m192 312h32v48h-32z" fill="#b6b9ba"/><path d="m208 312-48 48v-48z" fill="#4f5659"/><path d="m208 312 48 48v-48z" fill="#4f5659"/><circle cx="208" cy="456" fill="#6a7073" r="8"/><path d="m104.006 448a8 8 0 0 1 -7.161-4.424l-80-160a8 8 0 1 1 14.31-7.156l80 160a8 8 0 0 1 -7.149 11.58z" fill="#bd620e"/><path d="m104 440h16a16 16 0 0 1 16 16v32a0 0 0 0 1 0 0h-48a0 0 0 0 1 0 0v-32a16 16 0 0 1 16-16z" fill="#f7cca9" transform="matrix(0 -1 1 0 -352 576)"/><circle cx="312" cy="216" fill="#f0c6a4" r="32"/><circle cx="104" cy="216" fill="#f0c6a4" r="32"/><rect fill="#f7cca9" height="240" rx="104" width="208" x="104" y="72"/><path d="m360 344h112v144h-112z" fill="#f7b030"/><path d="m432 384h-32a8 8 0 0 1 0-16h32a8 8 0 0 1 0 16z" fill="#bd620e"/><path d="m440 416h-47a8 8 0 0 1 0-16h47a8 8 0 0 1 0 16z" fill="#bd620e"/><path d="m456 440h16a16 16 0 0 1 16 16v32a0 0 0 0 1 0 0h-48a0 0 0 0 1 0 0v-32a16 16 0 0 1 16-16z" fill="#f7cca9" transform="matrix(0 1 -1 0 928 0)"/><rect fill="none" height="32" rx="8" width="48" x="224" y="192"/><rect fill="none" height="32" rx="8" width="48" x="144" y="192"/><g fill="#452d23"><circle cx="248" cy="208" r="8"/><path d="m256 256a7.995 7.995 0 0 0 -14.778-4.236h-.006l.075-.117c-.341.5-8.644 12.353-33.291 12.353s-32.95-11.853-33.291-12.357l.075.117h-.006a7.993 7.993 0 1 0 -13.556 8.472h-.006c.577.923 3.829 5.767 11.222 10.5 6.602 4.231 18.13 9.268 35.562 9.268s28.96-5.037 35.562-9.262c7.393-4.731 10.645-9.575 11.222-10.5h-.006a7.95 7.95 0 0 0 1.222-4.238z"/><circle cx="168" cy="208" r="8"/></g><path d="m360 160a39.994 39.994 0 0 1 -22.89 36.16 32.018 32.018 0 0 0 -43.65-6.25 40.064 40.064 0 0 1 -12.64-38.02c-19.33-1.23-35.21-13.56-39.6-29.86-7.18 9.5-19.38 15.75-33.22 15.75s-26.04-6.25-33.22-15.75c-4.39 16.3-20.27 28.63-39.6 29.86a40.064 40.064 0 0 1 -12.64 38.02 32.018 32.018 0 0 0 -43.65 6.25 40 40 0 0 1 6.32-74.68c-8.1-6.5-13.21-15.9-13.21-26.37 0-18.19 15.38-33.18 35.2-35.29 6.11-12.7 20.28-21.6 36.8-21.6a42.747 42.747 0 0 1 26.5 8.94c5.67-13.53 20.31-23.16 37.5-23.16s31.83 9.63 37.5 23.16a42.747 42.747 0 0 1 26.5-8.94c16.52 0 30.69 8.9 36.8 21.6 19.82 2.11 35.2 17.1 35.2 35.29 0 10.47-5.11 19.87-13.21 26.37a40.011 40.011 0 0 1 29.21 38.52z" fill="#e1e3e6"/><path d="m319.155 180.422a8 8 0 0 0 -10.733-3.577l-23.351 11.676a24.019 24.019 0 0 0 -21.071-12.521h-32a24.028 24.028 0 0 0 -24 24 24.028 24.028 0 0 0 -24-24h-32a24.019 24.019 0 0 0 -21.071 12.521l-23.351-11.676a8 8 0 0 0 -7.156 14.31l27.578 13.789v11.056a24.028 24.028 0 0 0 24 24h32a24.028 24.028 0 0 0 24-24 24.028 24.028 0 0 0 24 24h32a24.028 24.028 0 0 0 24-24v-11.056l27.578-13.789a8 8 0 0 0 3.577-10.733zm-127.155 35.578a8.009 8.009 0 0 1 -8 8h-32a8.009 8.009 0 0 1 -8-8v-16a8.009 8.009 0 0 1 8-8h32a8.009 8.009 0 0 1 8 8zm80 0a8.009 8.009 0 0 1 -8 8h-32a8.009 8.009 0 0 1 -8-8v-16a8.009 8.009 0 0 1 8-8h32a8.009 8.009 0 0 1 8 8z" fill="#95573a"/><path d="m248 344h112v144h-112z" fill="#bd620e"/></svg>